<svg width="24" height="24" viewBox="0 0 24 24" fill="none" xmlns="http://www.w3.org/2000/svg">
<g clip-path="url(#clip0_165_1010)">
<path d="M18.4116 20.28C16.5478 21.6342 14.3031 22.3635 11.9993 22.3635C9.69543 22.3635 7.45073 21.6342 5.58691 20.28M16.7818 1.64941C18.8525 2.65934 20.5503 4.29889 21.6319 6.33307C22.7134 8.36726 23.1232 10.6916 22.8025 12.9731M1.196 12.9731C0.875387 10.6915 1.28535 8.36705 2.36712 6.33285C3.44889 4.29865 5.14692 2.65917 7.21782 1.64941M11.3818 5.5265L6.07127 10.8371C5.85527 11.0531 5.74727 11.1611 5.70691 11.2865C5.67132 11.3961 5.67132 11.5141 5.70691 11.6236C5.74727 11.748 5.85527 11.856 6.07127 12.0709L11.3818 17.3836C11.5978 17.5985 11.7058 17.7065 11.8313 17.7469C11.9404 17.7829 12.0582 17.7829 12.1684 17.7469C12.2927 17.7065 12.4007 17.5985 12.6156 17.3825L17.9284 12.072C18.1433 11.856 18.2513 11.748 18.2927 11.6225C18.3283 11.513 18.3283 11.395 18.2927 11.2854C18.2513 11.1611 18.1433 11.0531 17.9273 10.8381L12.6167 5.52541C12.4007 5.31051 12.2927 5.2025 12.1673 5.16214C12.0577 5.12655 11.9397 5.12655 11.8302 5.16214C11.7058 5.2025 11.5978 5.3105 11.3829 5.5265H11.3818Z" stroke="#7D829E" stroke-width="2.18182" stroke-linecap="round" stroke-linejoin="round"/>
</g>
<defs>
<clipPath id="clip0_165_1010">
<rect width="24" height="24" fill="white"/>
</clipPath>
</defs>
</svg>
