<svg width="49" height="49" viewBox="0 0 49 49" fill="none" xmlns="http://www.w3.org/2000/svg">
<path fill-rule="evenodd" clip-rule="evenodd" d="M47.3362 23.9776C47.3362 36.5522 37.1418 46.7465 24.5672 46.7465C11.9912 46.7465 1.79688 36.5536 1.79688 23.9762C1.79688 11.4002 11.9912 1.20581 24.5658 1.20581C37.1418 1.20581 47.3362 11.4002 47.3362 23.9776ZM30.0364 15.5155C33.2044 16.6025 35.5211 18.2317 35.0665 21.2613C34.7362 23.482 33.5009 24.555 31.8618 24.9319C34.1122 26.0995 34.8788 28.3145 34.1658 30.994C32.8119 34.8482 29.5945 35.1729 25.3155 34.3682L24.2764 38.5117L21.7677 37.8877L22.7926 33.7992C22.1432 33.6383 21.4783 33.466 20.7936 33.2825L19.7644 37.3908L17.2585 36.7682L18.2962 32.6148L13.2435 31.3442L14.4901 28.4839C14.4901 28.4839 16.3395 28.9724 16.3141 28.9357C17.0242 29.1108 17.3404 28.6505 17.4646 28.3428L20.2797 17.0952C20.3122 16.5644 20.1272 15.8952 19.1108 15.6411C19.1503 15.6143 17.2896 15.1893 17.2896 15.1893L17.9559 12.5211L23.0157 13.7691L24.0463 9.66369L26.5522 10.2877L25.5442 14.3112C26.219 14.4637 26.8966 14.619 27.5559 14.7828L28.5555 10.7846L31.0642 11.4072L30.0364 15.5155ZM24.035 22.3639C25.7432 22.8171 29.4618 23.8039 30.1098 21.219C30.7705 18.5733 27.1592 17.7743 25.3903 17.3846C25.1898 17.3395 25.0119 17.2999 24.8679 17.2646L23.6199 22.2566C23.7385 22.2849 23.8783 22.323 24.035 22.3639ZM22.0995 30.4011C24.1465 30.9404 28.6218 32.1192 29.3333 29.2717C30.0632 26.3578 25.7235 25.3893 23.6058 24.915C23.3686 24.8628 23.1597 24.8162 22.9889 24.7738L21.611 30.274C21.7522 30.3093 21.9145 30.3517 22.0981 30.4011H22.0995Z" fill="#F7931A"/>
</svg>
