<svg width="49" height="49" viewBox="0 0 49 49" fill="none" xmlns="http://www.w3.org/2000/svg">
<g clip-path="url(#clip0_165_2865)">
<path d="M24.1699 48.5C37.4248 48.5 48.1699 37.7548 48.1699 24.5C48.1699 11.2452 37.4248 0.5 24.1699 0.5C10.9151 0.5 0.169922 11.2452 0.169922 24.5C0.169922 37.7548 10.9151 48.5 24.1699 48.5Z" fill="#F3BA2F"/>
<path d="M18.3439 22.106L24.1699 16.28L29.9989 22.109L33.3889 18.719L24.1699 9.5L14.9539 18.716L18.3439 22.106ZM9.16992 24.5L12.5599 21.11L15.9499 24.5L12.5599 27.89L9.16992 24.5ZM18.3439 26.894L24.1699 32.72L29.9989 26.891L33.3889 30.2795L24.1699 39.5L14.9539 30.284L14.9494 30.2795L18.3439 26.894ZM32.3899 24.5L35.7799 21.11L39.1699 24.5L35.7799 27.89L32.3899 24.5ZM27.6079 24.497H27.6109V24.5L24.1699 27.941L20.7334 24.506L20.7274 24.5L20.7334 24.4955L21.3349 23.8925L21.6274 23.6L24.1699 21.059L27.6094 24.4985L27.6079 24.497Z" fill="white"/>
</g>
<defs>
<clipPath id="clip0_165_2865">
<rect width="48" height="48" fill="white" transform="translate(0.169922 0.5)"/>
</clipPath>
</defs>
</svg>
