<svg width="24" height="24" viewBox="0 0 24 24" fill="none" xmlns="http://www.w3.org/2000/svg">
<g clip-path="url(#clip0_165_992)">
<path d="M5.31497 11.5658C5.24939 11.1415 5.2166 10.7127 5.21688 10.2834C5.21688 5.67329 8.97862 1.93555 13.62 1.93555C18.2604 1.93555 22.0221 5.67329 22.0221 10.2834C22.0221 11.3248 21.8301 12.3213 21.4795 13.2416C21.4064 13.4326 21.3699 13.5275 21.3543 13.6016C21.3387 13.6677 21.3303 13.7352 21.3292 13.803C21.3271 13.8802 21.3376 13.9637 21.3584 14.1317L21.779 17.5439C21.8238 17.9143 21.8468 18.099 21.7852 18.2326C21.7316 18.3505 21.636 18.4442 21.5171 18.4955C21.3814 18.5529 21.1978 18.5269 20.8284 18.4726L17.5059 17.9853C17.3317 17.9602 17.2451 17.9467 17.1658 17.9477C17.0956 17.9472 17.0256 17.9545 16.9571 17.9696C16.8798 17.9863 16.7807 18.0229 16.5835 18.0969C15.2279 18.6007 13.7664 18.7515 12.3365 18.5352M6.91984 22.8051C10.0127 22.8051 12.5212 20.235 12.5212 17.066C12.5212 13.8959 10.0127 11.3269 6.91984 11.3269C3.82593 11.3269 1.3174 13.8959 1.3174 17.066C1.3174 17.7025 1.41862 18.3161 1.60645 18.8889C1.68471 19.131 1.72436 19.2521 1.73793 19.3345C1.75149 19.4211 1.75358 19.4702 1.74836 19.5568C1.74314 19.6402 1.72227 19.7342 1.68053 19.923L1.04297 22.8051L4.16819 22.3783C4.33827 22.3554 4.42384 22.3429 4.49793 22.3439C4.57723 22.3439 4.61793 22.3491 4.69619 22.3648C4.76923 22.3783 4.87671 22.4169 5.09375 22.4931C5.6803 22.7001 6.29784 22.8056 6.91984 22.8051Z" stroke="#7D829E" stroke-width="2.08696" stroke-linecap="round" stroke-linejoin="round"/>
</g>
<defs>
<clipPath id="clip0_165_992">
<rect width="24" height="24" fill="white"/>
</clipPath>
</defs>
</svg>
