<svg width="24" height="24" viewBox="0 0 24 24" fill="none" xmlns="http://www.w3.org/2000/svg">
<g clip-path="url(#clip0_1366_4)">
<path d="M11.9992 22.6196C17.7624 22.6196 22.434 17.9479 22.434 12.1848C22.434 6.4227 17.7624 1.75 11.9992 1.75C6.23611 1.75 1.56445 6.4227 1.56445 12.1848C1.56445 17.9479 6.23611 22.6196 11.9992 22.6196Z" stroke="#7D829E" stroke-width="2.08696" stroke-linecap="round" stroke-linejoin="round"/>
<path d="M14.8409 8.2882C15.3512 8.11915 15.6058 8.03359 15.7748 8.09411C15.8477 8.12008 15.9138 8.16193 15.9685 8.21661C16.0232 8.27129 16.065 8.33744 16.091 8.41028C16.1515 8.58037 16.067 8.83498 15.8969 9.3442L14.3442 14.0012C14.2962 14.1473 14.2712 14.2193 14.2305 14.2798C14.194 14.3331 14.1481 14.3791 14.0948 14.4155C14.0343 14.4572 13.9623 14.4812 13.8173 14.5292L9.16023 16.0819C8.64997 16.251 8.39536 16.3365 8.22632 16.276C8.15348 16.25 8.08733 16.2082 8.03264 16.1535C7.97796 16.0988 7.93612 16.0327 7.91014 15.9598C7.84962 15.7898 7.93414 15.5352 8.10423 15.0259L9.65693 10.3689C9.70493 10.2228 9.72997 10.1508 9.77067 10.0903C9.80711 10.0371 9.8531 9.99108 9.90632 9.95463C9.96684 9.91289 10.0388 9.88889 10.1839 9.84089L14.8409 8.2882Z" stroke="#7D829E" stroke-width="2.08696" stroke-linecap="round" stroke-linejoin="round"/>
</g>
<defs>
<clipPath id="clip0_1366_4">
<rect width="24" height="24" fill="white"/>
</clipPath>
</defs>
</svg>
