<svg width="49" height="49" viewBox="0 0 49 49" fill="none" xmlns="http://www.w3.org/2000/svg">
<g clip-path="url(#clip0_165_2870)">
<path d="M24.5596 48.5C37.8144 48.5 48.5596 37.7548 48.5596 24.5C48.5596 11.2452 37.8144 0.5 24.5596 0.5C11.3047 0.5 0.55957 11.2452 0.55957 24.5C0.55957 37.7548 11.3047 48.5 24.5596 48.5Z" fill="#EF0027"/>
<path d="M33.4576 15.3695L11.8096 11.3855L23.2021 40.0535L39.0766 20.7125L33.4576 15.3695ZM33.1096 17.1245L36.4216 20.273L27.3646 21.9125L33.1096 17.1245ZM25.3966 21.584L15.8506 13.667L31.4536 16.538L25.3966 21.584ZM24.7171 22.985L23.1601 35.855L14.7676 14.7305L24.7171 22.985ZM26.1571 23.6675L36.1876 21.8525L24.6826 35.867L26.1571 23.6675Z" fill="white"/>
</g>
<defs>
<clipPath id="clip0_165_2870">
<rect width="48" height="48" fill="white" transform="translate(0.55957 0.5)"/>
</clipPath>
</defs>
</svg>
