<svg width="24" height="24" viewBox="0 0 24 24" fill="none" xmlns="http://www.w3.org/2000/svg">
<path d="M23.5152 5.06401C23.4626 4.48344 23.3541 3.95887 23.1049 3.47315C22.7083 2.71349 22.0808 2.09926 21.3129 1.71887C20.8226 1.47087 20.2958 1.38172 19.7141 1.34172C19.1506 1.30058 18.4661 1.30744 17.6226 1.31658L6.70034 1.43087C5.85691 1.43887 5.1712 1.44572 4.60892 1.49944C4.02834 1.55201 3.50377 1.65944 3.01806 1.90972C2.25234 2.31087 1.63977 2.93715 1.26377 3.70058C1.01577 4.19201 0.92663 4.71772 0.88663 5.30058C0.845487 5.86287 0.851201 6.54858 0.859201 7.39201L0.91863 13.0217C1.49605 12.6706 2.12735 12.4169 2.7872 12.2709L2.73692 7.4103C2.72777 6.51887 2.72092 5.90972 2.75292 5.43087C2.7872 4.97029 2.84892 4.71658 2.94149 4.53715C3.14377 4.12229 3.47863 3.78058 3.88777 3.57029C4.06606 3.47429 4.31863 3.40687 4.77692 3.36458C5.25577 3.32115 5.86492 3.31544 6.75634 3.30629L17.6021 3.19201C18.4935 3.18401 19.1038 3.17715 19.5826 3.21029C20.0421 3.24229 20.2969 3.30515 20.4763 3.39772C20.8912 3.60001 21.2318 3.93487 21.4432 4.34515C21.5381 4.52229 21.6066 4.77487 21.6489 5.23429C21.6912 5.71201 21.6981 6.32229 21.7072 7.21372L21.7621 12.4583L20.3403 11.0652C20.1681 10.8928 19.9909 10.7255 19.8089 10.5634C19.6079 10.387 19.3736 10.2525 19.1198 10.168C18.7227 10.0404 18.295 10.0444 17.9003 10.1794C17.6496 10.2721 17.4188 10.4117 17.2203 10.5909C17.0615 10.7337 16.8855 10.9132 16.6992 11.1029L14.3792 13.4732L14.1129 13.2126C13.9411 13.0406 13.7643 12.8736 13.5826 12.712C13.3817 12.5351 13.1474 12.4002 12.8935 12.3154C12.4963 12.1882 12.0686 12.1926 11.6741 12.328C11.4229 12.4205 11.1917 12.5601 10.9929 12.7394C10.8352 12.8812 10.6581 13.0617 10.4729 13.2514L9.23863 14.512C9.64663 15.0149 9.9712 15.5829 10.2123 16.2L11.7906 14.5886C12.0043 14.3703 12.1255 14.2469 12.2272 14.1612C12.2458 14.1416 12.2679 14.1257 12.2923 14.1143H12.3209C12.3301 14.1143 12.3495 14.1326 12.3872 14.16C12.4821 14.2434 12.6146 14.3634 12.8329 14.5772L18.4443 20.0743L17.7872 20.0812L10.4501 20.1566C10.2749 20.8241 9.99689 21.4603 9.62606 22.0423L17.8443 21.9566C18.6901 21.9474 19.3735 21.9406 19.9358 21.888C20.5186 21.8354 21.0421 21.7269 21.5278 21.4766C22.2935 21.0754 22.9049 20.4492 23.2821 19.6857C23.5301 19.1943 23.6192 18.6686 23.6592 18.0857C23.7003 17.5234 23.6935 16.8389 23.6843 15.9943L23.6718 14.7086L23.5918 7.15544C23.5838 6.31201 23.5769 5.62629 23.5232 5.06401H23.5152ZM21.7998 15.976C21.8089 16.8674 21.8158 17.4777 21.7826 17.9566C21.7506 18.416 21.6866 18.6697 21.5952 18.8492C21.4112 19.2172 21.1232 19.5303 20.7781 19.7406L15.7163 14.7817L18.0192 12.4309C18.2329 12.2137 18.3529 12.0903 18.4558 12.0046C18.4743 11.9846 18.4964 11.9684 18.5209 11.9566H18.5483C18.5586 11.9566 18.5769 11.984 18.6146 12.0023C18.7095 12.0857 18.8432 12.2069 19.0603 12.4206L21.7998 15.104L21.8089 15.9669L21.7998 15.976Z" fill="#7D829E"/>
<path d="M11.0913 8.5806C11.0873 8.18398 11.0051 7.79204 10.8496 7.42717C10.694 7.0623 10.4681 6.73166 10.1847 6.45413C9.90137 6.17659 9.56609 5.95761 9.19806 5.80969C8.83004 5.66177 8.43647 5.58781 8.03986 5.59203C7.64304 5.59576 7.25086 5.67768 6.88572 5.83309C6.52059 5.98851 6.18968 6.21437 5.9119 6.49778C5.63413 6.78118 5.41494 7.11655 5.26688 7.48473C5.11881 7.8529 5.04478 8.24665 5.049 8.64346C5.05273 9.04047 5.13472 9.43284 5.29028 9.79812C5.44584 10.1634 5.67191 10.4944 5.95555 10.7722C6.2392 11.05 6.57484 11.2692 6.94328 11.4171C7.31172 11.565 7.70571 11.6388 8.10271 11.6343C8.49943 11.6304 8.89149 11.5484 9.25649 11.3929C9.62149 11.2374 9.95227 11.0116 10.2299 10.7282C10.5076 10.4448 10.7267 10.1095 10.8747 9.74136C11.0227 9.37326 11.0967 8.9796 11.0924 8.58289L11.0913 8.5806ZM6.91643 8.62403C6.91462 8.47366 6.9425 8.32441 6.99848 8.18484C7.05446 8.04526 7.13744 7.91811 7.24265 7.81066C7.34787 7.70322 7.47325 7.6176 7.61162 7.5587C7.74999 7.49981 7.89862 7.4688 8.049 7.46746C8.35236 7.46562 8.64415 7.58375 8.86078 7.79611C9.07742 8.00847 9.20135 8.29784 9.20557 8.60117C9.20741 8.90433 9.08944 9.19595 8.87733 9.41256C8.66521 9.62917 8.37613 9.75323 8.073 9.75774C7.76964 9.75958 7.47785 9.64145 7.26121 9.42909C7.04457 9.21674 6.92064 8.92736 6.91643 8.62403Z" fill="#7D829E"/>
<path fill-rule="evenodd" clip-rule="evenodd" d="M0.712502 13.8779C0.711898 13.8213 0.722446 13.7652 0.743543 13.7127C0.76464 13.6602 0.795872 13.6123 0.835457 13.5719C0.875042 13.5315 0.922204 13.4992 0.97425 13.477C1.0263 13.4548 1.08221 13.4431 1.13879 13.4425L3.71936 13.4151C3.95364 13.4128 4.15364 13.5979 4.15593 13.8425L4.18222 16.4139C4.18267 16.4705 4.17197 16.5266 4.15073 16.5791C4.1295 16.6315 4.09814 16.6793 4.05845 16.7196C4.01876 16.7599 3.97151 16.792 3.91941 16.8141C3.86731 16.8362 3.81137 16.8478 3.75479 16.8482C3.698 16.8496 3.64152 16.8396 3.58867 16.8187C3.53582 16.7979 3.48767 16.7667 3.44708 16.727C3.4065 16.6872 3.37428 16.6398 3.35234 16.5874C3.33041 16.535 3.31919 16.4787 3.31936 16.4219L3.30107 14.6493C3.0405 14.8665 2.66793 15.2093 2.16736 15.7213C1.73845 16.1599 1.43472 16.7053 1.28768 17.3009C1.14064 17.8964 1.15564 18.5205 1.33114 19.1083C1.50663 19.6961 1.83622 20.2263 2.2857 20.6438C2.73519 21.0612 3.2882 21.3508 3.88736 21.4825C3.94291 21.4941 3.99557 21.5167 4.04219 21.549C4.08882 21.5814 4.12845 21.6228 4.15874 21.6708C4.18903 21.7188 4.20934 21.7724 4.21848 21.8284C4.22762 21.8844 4.22539 21.9416 4.21193 21.9968C4.20021 22.052 4.17755 22.1043 4.1453 22.1506C4.11304 22.1969 4.07184 22.2363 4.02413 22.2664C3.97641 22.2966 3.92314 22.3169 3.86746 22.3261C3.81179 22.3353 3.75482 22.3333 3.69993 22.3202C2.90711 22.1531 2.17957 21.7601 1.60507 21.1888C1.20139 20.7949 0.879436 20.3251 0.657668 19.8065C0.435901 19.2879 0.318684 18.7306 0.312738 18.1666C0.306792 17.6026 0.412235 17.043 0.62302 16.5198C0.833804 15.9967 1.14579 15.5203 1.54107 15.1179C1.88393 14.7671 2.16393 14.5008 2.40507 14.2836L1.14793 14.2951C1.09135 14.2957 1.0352 14.2851 0.982697 14.264C0.930192 14.2429 0.882356 14.2117 0.841922 14.1721C0.801488 14.1325 0.769248 14.0854 0.747042 14.0333C0.724836 13.9813 0.713099 13.9254 0.712502 13.8688V13.8779ZM5.41422 13.9236C5.42581 13.8683 5.44837 13.8159 5.48057 13.7694C5.51277 13.723 5.55395 13.6835 5.60168 13.6532C5.64941 13.623 5.70272 13.6026 5.75846 13.5933C5.8142 13.584 5.87125 13.5859 5.92622 13.5991C6.6885 13.7591 7.42336 14.1362 8.02107 14.7305C8.42468 15.1245 8.74654 15.5943 8.96821 16.1129C9.18988 16.6316 9.30699 17.1889 9.31283 17.7529C9.31867 18.3169 9.21313 18.8765 9.00224 19.3996C8.79136 19.9227 8.47929 20.3991 8.08393 20.8013C7.8046 21.0883 7.51646 21.3665 7.21993 21.6356L8.48736 21.6231C8.72164 21.6208 8.92165 21.8059 8.92279 22.0493C8.92432 22.1062 8.91441 22.1628 8.89366 22.2158C8.87291 22.2688 8.84173 22.3171 8.80198 22.3578C8.76223 22.3985 8.71471 22.4308 8.66223 22.4528C8.60976 22.4748 8.5534 22.4861 8.4965 22.4859L5.91593 22.5122C5.80394 22.5133 5.69585 22.4712 5.61422 22.3945C5.53517 22.3147 5.49011 22.2074 5.4885 22.0951L5.46222 19.5145C5.46161 19.4578 5.4722 19.4016 5.49337 19.349C5.51453 19.2964 5.54587 19.2485 5.58558 19.2081C5.62528 19.1676 5.67258 19.1354 5.72476 19.1133C5.77693 19.0911 5.83297 19.0795 5.88964 19.0791C6.13307 19.0768 6.32393 19.2619 6.32622 19.5053L6.3445 21.2791C6.60507 21.0608 6.9765 20.7191 7.47822 20.2071C7.90743 19.7684 8.21139 19.2229 8.35854 18.6271C8.50569 18.0313 8.49067 17.407 8.31503 16.8189C8.13939 16.2309 7.80954 15.7006 7.35973 15.2831C6.90992 14.8656 6.35655 14.5762 5.75707 14.4448C5.70176 14.4332 5.64934 14.4106 5.60289 14.3784C5.55645 14.3462 5.51693 14.305 5.48667 14.2573C5.45641 14.2096 5.43603 14.1563 5.42673 14.1005C5.41742 14.0448 5.41939 13.9877 5.4325 13.9328L5.41422 13.9236Z" fill="#7D829E"/>
</svg>
