<svg width="14" height="20" viewBox="0 0 14 20" fill="none" xmlns="http://www.w3.org/2000/svg">
<path fill-rule="evenodd" clip-rule="evenodd" d="M12.8932 3.81183C13.2614 4.62477 13.4673 5.52595 13.4673 6.47536C13.469 7.7508 13.091 8.99788 12.3814 10.0577C11.9062 10.7696 11.2948 11.3804 10.5824 11.8549C9.87008 12.3294 9.07087 12.6582 8.23085 12.8224V15.1118H9.61203C9.77348 15.1118 9.93336 15.1435 10.0825 15.2052C10.2317 15.2669 10.3673 15.3574 10.4815 15.4715C10.5957 15.5856 10.6864 15.7211 10.7482 15.8702C10.8101 16.0194 10.8419 16.1792 10.842 16.3407C10.8421 16.5021 10.8104 16.662 10.7487 16.8112C10.687 16.9604 10.5965 17.0959 10.4824 17.2102C10.3682 17.3244 10.2328 17.415 10.0836 17.4768C9.9345 17.5387 9.77465 17.5706 9.6132 17.5707H8.23085V18.7718C8.23085 19.4483 7.67909 20.0001 7.00262 20.0001C6.84075 20.001 6.68031 19.9698 6.53058 19.9083C6.38086 19.8468 6.24483 19.7562 6.13037 19.6417C6.01591 19.5273 5.9253 19.3912 5.86379 19.2415C5.80228 19.0918 5.77109 18.9313 5.77203 18.7695V17.5707H4.38732C4.06186 17.5691 3.75024 17.4388 3.52055 17.2082C3.29085 16.9776 3.16175 16.6655 3.16144 16.3401C3.16144 15.6612 3.71203 15.1118 4.38967 15.1118H5.77203V12.8224C4.29853 12.5356 2.97044 11.7457 2.01486 10.588C1.05927 9.43026 0.535534 7.97652 0.533203 6.47536C0.535072 4.76076 1.21702 3.11693 2.42942 1.90452C3.64183 0.692118 5.28567 0.0101692 7.00026 0.00830078C8.24407 0.00934929 9.46126 0.368604 10.5063 1.04311C11.5513 1.71762 12.38 2.67883 12.8932 3.81183ZM8.6332 10.1377C9.34072 9.82113 9.94147 9.30653 10.363 8.65603C10.7844 8.00553 11.0086 7.24694 11.0085 6.47183C11.0085 4.96477 10.1732 3.64948 8.93909 2.96712C8.34645 2.6365 7.67888 2.46353 7.00026 2.46477C4.7885 2.46477 2.98967 4.2636 2.98967 6.47536C2.98967 8.68713 4.7885 10.4859 7.00026 10.4859C7.56305 10.4864 8.11956 10.3677 8.6332 10.1377Z" fill="white"/>
</svg>
