<svg width="18" height="19" viewBox="0 0 18 19" fill="none" xmlns="http://www.w3.org/2000/svg">
<path fill-rule="evenodd" clip-rule="evenodd" d="M12.6356 7.22614L14.5706 4.46364L14.6868 4.97364L14.6843 4.97739L14.7343 5.18114L14.7443 5.22364C14.826 5.56013 15.0381 5.85038 15.3338 6.03053C15.6295 6.21068 15.9847 6.26598 16.3212 6.18426C16.6577 6.10254 16.9479 5.8905 17.1281 5.59478C17.3082 5.29905 17.3635 4.94388 17.2818 4.60739L16.6668 1.90864L16.4631 1.01239H16.4593C16.3894 0.696594 16.2045 0.418112 15.9406 0.231136C15.6747 0.0460577 15.3492 -0.0328644 15.0281 0.00988634V0.00488634L11.3718 0.467386C11.0385 0.522443 10.7394 0.704523 10.5374 0.975392C10.3355 1.24626 10.2463 1.58484 10.2887 1.92004C10.3311 2.25524 10.5017 2.56098 10.7648 2.77306C11.0278 2.98513 11.3627 3.08704 11.6993 3.05739L12.4331 2.96489L10.4968 5.72864C9.03957 5.08034 7.40238 4.95839 5.86518 5.38362C4.32797 5.80884 2.98621 6.75485 2.06931 8.05989C1.44081 8.95786 1.03637 9.99322 0.889805 11.0794C0.743235 12.1657 0.858788 13.2712 1.22681 14.3036C1.69952 15.6514 2.58418 16.8164 3.75556 17.6336C5.25004 18.6759 7.09661 19.0835 8.89096 18.7672C10.6853 18.4509 12.2812 17.4365 13.3293 15.9461C15.1556 13.3361 14.9093 9.88614 12.9418 7.55864L12.6368 7.22614H12.6356ZM4.06681 14.2299C4.4371 14.8317 4.95106 15.332 5.56253 15.6861C6.174 16.0401 6.86383 16.2368 7.57007 16.2583C8.27631 16.2799 8.97686 16.1257 9.60878 15.8096C10.2407 15.4935 10.7842 15.0254 11.1906 14.4474C11.838 13.5211 12.0914 12.3758 11.8952 11.2629C11.6991 10.1499 11.0694 9.16027 10.1443 8.51114C9.21812 7.86413 8.07311 7.61092 6.96047 7.80706C5.84783 8.0032 4.85842 8.63268 4.20931 9.55739C3.84903 10.072 3.60724 10.6601 3.50134 11.2793C3.39543 11.8985 3.42804 12.5335 3.59681 13.1386C3.70306 13.5224 3.86181 13.8886 4.06806 14.2299H4.06681Z" fill="white"/>
</svg>
