<svg width="169" height="45" viewBox="0 0 169 45" fill="none" xmlns="http://www.w3.org/2000/svg">
<g clip-path="url(#clip0_165_2876)">
<path d="M54.2202 9.13721C53.8744 9.13721 53.5808 9.38821 53.5267 9.73L49.5245 35.111C49.5099 35.2038 49.5156 35.2985 49.5412 35.3888C49.5668 35.4791 49.6116 35.5628 49.6726 35.6341C49.7336 35.7054 49.8093 35.7627 49.8945 35.802C49.9798 35.8412 50.0725 35.8616 50.1664 35.8616H54.9127C55.2579 35.8616 55.5521 35.6101 55.6062 35.2688L56.7818 27.8154C56.8079 27.6502 56.892 27.4997 57.0192 27.391C57.1463 27.2823 57.3081 27.2226 57.4753 27.2227H61.7906C66.8326 27.2227 71.1126 23.5439 71.8944 18.5589C72.6826 13.5318 68.7553 9.14812 63.189 9.13721H54.2202ZM58.8341 14.8032H62.2867C65.1291 14.8032 66.0547 16.4804 65.7621 18.3352C65.4694 20.1939 64.0318 21.5631 61.2821 21.5631H57.768L58.8341 14.8032ZM81.5478 16.5285C80.3493 16.533 78.9702 16.7786 77.422 17.4234C73.8707 18.9037 72.1652 21.9629 71.441 24.1932C71.441 24.1932 69.1358 30.9977 74.3439 34.736C74.3439 34.736 79.1741 38.3349 84.6115 34.5143L84.5177 35.111C84.5032 35.2037 84.5089 35.2983 84.5344 35.3886C84.5599 35.4788 84.6046 35.5624 84.6655 35.6337C84.7264 35.705 84.802 35.7623 84.8871 35.8017C84.9722 35.841 85.0648 35.8614 85.1586 35.8616H89.6643C90.0101 35.8616 90.3038 35.6101 90.3578 35.2688L93.0986 17.8878C93.1133 17.795 93.1077 17.7003 93.0823 17.6099C93.0568 17.5196 93.0121 17.4358 92.9512 17.3644C92.8903 17.293 92.8146 17.2356 92.7295 17.1962C92.6443 17.1568 92.5515 17.1363 92.4577 17.1362H87.9519C87.6062 17.1362 87.312 17.3877 87.2584 17.729L87.1111 18.6646C87.1111 18.6646 85.1437 16.5151 81.5478 16.5285ZM81.6951 22.0185C82.2125 22.0185 82.6857 22.0899 83.1104 22.2263C85.0544 22.8504 86.1567 24.718 85.8377 26.7425C85.4443 29.2352 83.4001 31.0706 80.7784 31.0706C80.2615 31.0706 79.7882 30.9997 79.3631 30.8633C77.4195 30.2392 76.3103 28.3715 76.6293 26.3471C77.0227 23.8544 79.0734 22.0185 81.6951 22.0185ZM119.105 9.13721C118.759 9.13721 118.466 9.38821 118.412 9.73L114.409 35.111C114.395 35.2038 114.401 35.2985 114.426 35.3888C114.452 35.4791 114.497 35.5628 114.558 35.6341C114.619 35.7054 114.694 35.7627 114.78 35.802C114.865 35.8412 114.957 35.8616 115.051 35.8616H119.798C120.143 35.8616 120.437 35.6101 120.491 35.2688L121.667 27.8154C121.693 27.6502 121.777 27.4997 121.904 27.391C122.031 27.2823 122.193 27.2226 122.36 27.2227H126.676C131.718 27.2227 135.997 23.5439 136.778 18.5589C137.567 13.5318 133.64 9.14812 128.074 9.13721H119.105ZM123.719 14.8032H127.172C130.014 14.8032 130.94 16.4804 130.647 18.3352C130.354 20.1939 128.917 21.5631 126.167 21.5631H122.653L123.719 14.8032ZM146.432 16.5285C145.234 16.533 143.855 16.7786 142.306 17.4234C138.755 18.9037 137.05 21.9629 136.325 24.1932C136.325 24.1932 134.021 30.9977 139.229 34.736C139.229 34.736 144.059 38.3349 149.496 34.5143L149.403 35.111C149.388 35.2038 149.394 35.2985 149.419 35.3888C149.445 35.4791 149.49 35.5628 149.551 35.6341C149.612 35.7054 149.688 35.7627 149.773 35.802C149.858 35.8412 149.951 35.8616 150.045 35.8616H154.55C154.896 35.8616 155.189 35.6101 155.243 35.2688L157.985 17.8878C158 17.795 157.994 17.7001 157.969 17.6097C157.943 17.5193 157.898 17.4354 157.837 17.364C157.776 17.2926 157.701 17.2352 157.615 17.1959C157.53 17.1566 157.437 17.1362 157.343 17.1362H152.837C152.492 17.1362 152.198 17.3877 152.144 17.729L151.997 18.6646C151.997 18.6646 150.029 16.5151 146.433 16.5285H146.432ZM146.58 22.0185C147.097 22.0185 147.57 22.0899 147.995 22.2263C149.939 22.8504 151.041 24.718 150.722 26.7425C150.329 29.2352 148.285 31.0706 145.663 31.0706C145.146 31.0706 144.673 30.9997 144.248 30.8633C142.304 30.2392 141.195 28.3715 141.514 26.3471C141.907 23.8544 143.958 22.0185 146.58 22.0185ZM95.2366 17.1362C94.8794 17.1362 94.6255 17.4849 94.7346 17.8247L99.6744 33.1536L95.2078 40.3772C94.9911 40.728 95.2431 41.1809 95.6553 41.1809H100.934C101.085 41.1807 101.234 41.1417 101.365 41.0675C101.497 40.9933 101.607 40.8864 101.685 40.7572L115.481 17.9349C115.529 17.8549 115.555 17.7637 115.556 17.6704C115.558 17.5771 115.534 17.4852 115.488 17.4039C115.442 17.3227 115.376 17.255 115.295 17.2079C115.215 17.1608 115.123 17.1359 115.03 17.1357H109.751C109.599 17.1358 109.449 17.1757 109.317 17.2513C109.184 17.3268 109.074 17.4356 108.996 17.5668L103.566 26.735L100.809 17.6348C100.766 17.4905 100.677 17.3641 100.556 17.2743C100.435 17.1844 100.288 17.1358 100.137 17.1357L95.2366 17.1362ZM163.104 9.13721C162.759 9.13721 162.465 9.38871 162.411 9.73L158.408 35.11C158.393 35.2028 158.399 35.2977 158.424 35.3881C158.45 35.4785 158.494 35.5624 158.555 35.6338C158.616 35.7052 158.692 35.7626 158.778 35.8019C158.863 35.8412 158.956 35.8616 159.05 35.8616H163.796C164.141 35.8616 164.435 35.6101 164.489 35.2688L168.492 9.88775C168.506 9.79512 168.501 9.70044 168.475 9.61022C168.449 9.51999 168.405 9.43636 168.344 9.36505C168.283 9.29375 168.207 9.23647 168.122 9.19714C168.037 9.15781 167.945 9.13736 167.851 9.13721H163.104Z" fill="white"/>
<path d="M14.6521 9.13721C14.3463 9.13746 14.0507 9.24674 13.8183 9.44541C13.5859 9.64408 13.4319 9.91912 13.3841 10.2211L11.2773 23.583C11.3249 23.2809 11.4787 23.0057 11.7112 22.807C11.9437 22.6083 12.2394 22.4991 12.5453 22.4991H18.7188C24.932 22.4991 30.2041 17.9666 31.1675 11.8244C31.2392 11.3658 31.2798 10.9029 31.289 10.4389C29.71 9.61095 27.8553 9.13721 25.8229 9.13721H14.6521Z" fill="#B9C0D2"/>
<path d="M31.2884 10.4395C31.2791 10.9035 31.2385 11.3664 31.1668 11.825C30.2035 17.9672 24.9308 22.4997 18.7182 22.4997H12.5447C12.2388 22.4997 11.943 22.6088 11.7106 22.8076C11.4781 23.0063 11.3242 23.2815 11.2767 23.5836L9.33959 35.8622L8.12622 43.565C8.10254 43.7138 8.11143 43.866 8.15228 44.0111C8.19312 44.1561 8.26495 44.2906 8.36281 44.4052C8.46066 44.5198 8.58222 44.6118 8.71908 44.6749C8.85594 44.7379 9.00486 44.7705 9.15555 44.7705H15.8564C16.1621 44.7702 16.4578 44.6609 16.6902 44.4622C16.9226 44.2636 17.0765 43.9885 17.1243 43.6866L18.8893 32.4919C18.9371 32.1898 19.0912 31.9146 19.3238 31.7159C19.5564 31.5172 19.8523 31.408 20.1582 31.408H24.1034C30.3166 31.408 35.5887 26.8755 36.5521 20.7332C37.2362 16.3738 35.0406 12.4068 31.2884 10.4395Z" fill="white"/>
<path d="M7.03889 0.230469C6.7332 0.230381 6.43753 0.339413 6.20508 0.537937C5.97264 0.736462 5.81869 1.01144 5.77095 1.31337L0.512689 34.6567C0.489256 34.8056 0.498354 34.9578 0.539356 35.1028C0.580358 35.2478 0.652291 35.3822 0.750205 35.4967C0.848118 35.6113 0.969688 35.7033 1.10655 35.7664C1.24341 35.8294 1.39231 35.8621 1.54301 35.8621H9.34062L11.2767 23.5836L13.3835 10.2217C13.4313 9.91968 13.5853 9.64464 13.8177 9.44597C14.0501 9.2473 14.3457 9.13802 14.6515 9.13777H25.8223C27.8552 9.13777 29.7094 9.612 31.2884 10.4394C31.3966 4.84732 26.7822 0.230469 20.438 0.230469H7.03889Z" fill="white"/>
</g>
<defs>
<clipPath id="clip0_165_2876">
<rect width="168" height="45" fill="white" transform="translate(0.5)"/>
</clipPath>
</defs>
</svg>
