<svg width="61" height="60" viewBox="0 0 61 60" fill="none" xmlns="http://www.w3.org/2000/svg">
<path d="M56.8064 13.5522C56.1908 10.6043 54.5917 8.51217 53.3447 7.26522C55.703 4.00435 55.1891 0.187826 55.163 0L51.5734 0.529565C51.576 0.56087 51.8864 3.11217 50.3604 5.16522C48.7847 4.45044 46.0038 3.57391 42.7534 4.25217C39.0151 5.03478 35.7412 7.60956 33.023 11.9009L32.1804 13.2313L33.3543 14.2748C33.4404 14.3478 34.6717 15.4122 36.576 15.8322C33.4064 19.5548 29.1569 22.4322 23.6238 24.6C17.8221 26.8748 11.8456 29.5226 8.09688 34.5913C5.97079 37.4687 4.8334 41.1861 4.89601 45.0574C4.96123 49.033 6.29688 52.693 8.66297 55.3617C10.8341 57.8312 13.8286 59.4277 17.0891 59.8539C17.7856 59.9504 18.4977 59.9974 19.2282 59.9974C21.516 59.9974 23.9343 59.5278 26.3264 58.6044C33.2056 55.9565 37.7969 49.1948 41.3812 42.9313C44.316 37.8078 46.8934 32.027 49.4943 24.7435C50.4647 25.7687 51.4299 26.2435 51.5056 26.28L52.9195 26.9557L53.7882 25.6383C56.5821 21.3965 57.5969 17.3296 56.8064 13.5496V13.5522ZM46.0925 23.4652C43.5621 30.553 41.0708 36.1565 38.243 41.0948C34.9769 46.8 30.8551 52.9383 25.0377 55.1765C22.4186 56.1835 15.8499 57.9809 11.3656 52.9174C7.73688 48.8165 7.56992 41.4339 11.0004 36.793C14.1751 32.5017 19.6247 30.107 24.936 28.0252C31.0195 25.6357 35.7308 22.4374 39.2917 18.2687C39.3276 18.5195 39.3711 18.7692 39.4221 19.0174L39.4299 19.0435C39.4534 19.1557 39.4795 19.2652 39.5082 19.3748L39.5212 19.4426L39.6151 19.7791L39.636 19.8443C39.6673 19.9513 39.7038 20.0583 39.7404 20.1652L39.7482 20.1913C39.8356 20.4343 39.9348 20.6728 40.0456 20.9061L40.0664 20.9478L40.2125 21.2322L40.2438 21.2843C40.2986 21.3835 40.3586 21.48 40.4186 21.5765L40.4604 21.6365C40.523 21.733 40.5908 21.8296 40.6612 21.9235L41.0447 22.4243L41.6551 22.5809H41.6604L41.9291 22.6409L41.9864 22.6513L42.2551 22.6957L42.3021 22.7009L42.5604 22.727L42.5943 22.7296C42.7999 22.7457 43.0063 22.7518 43.2125 22.7478H43.2308C43.3221 22.7452 43.4134 22.7426 43.5073 22.7348H43.5543L43.836 22.7087L43.8882 22.7035L44.1647 22.6696H44.1777L44.4647 22.6226L44.5169 22.6122L44.7986 22.56L44.8351 22.5496L45.096 22.4896L45.1377 22.4817C45.341 22.4318 45.5428 22.3761 45.743 22.3148H45.7482C45.9437 22.2543 46.1376 22.1891 46.3299 22.1191L46.3769 22.1035L46.6169 22.0148L46.643 22.007C46.4395 22.5287 46.2517 23.0243 46.0951 23.4678L46.0925 23.4652ZM51.8082 21.8583C51.3945 21.3026 51.1417 20.6437 51.0778 19.9539C51.0412 19.5887 51.0517 19.2 51.1038 18.8009L51.6699 14.6739L48.2786 17.0374C47.2482 17.7574 44.8612 19.0435 43.2047 19.0852C42.5812 17.5357 42.7873 14.8043 43.0195 13.5574L43.8021 9.46435L40.2882 11.6452C40.1305 11.7442 39.9676 11.8348 39.8004 11.9165C38.8091 12.3939 37.9273 12.3887 37.236 12.2243C39.1091 9.8113 41.1908 8.34522 43.4395 7.85739C46.8491 7.12174 49.6351 8.90609 49.7238 8.96348L49.7578 8.98435C49.7838 9.00261 52.5334 10.8522 53.2586 14.3139C53.7386 16.607 53.2508 19.1374 51.8082 21.8583Z" fill="white"/>
<path d="M21.0227 37.44L19.9454 33.934C15.4114 35.3635 13.2958 38.4183 12.3175 40.727C11.6722 42.2266 11.3249 43.8374 11.2949 45.4696L14.921 45.4096C14.921 45.3496 14.8923 39.3731 21.0227 37.44Z" fill="white"/>
</svg>
