<svg width="24" height="24" viewBox="0 0 24 24" fill="none" xmlns="http://www.w3.org/2000/svg">
<path d="M22.3296 5.42087C22.0833 4.24174 21.4437 3.40487 20.9449 2.90609C21.8882 1.60174 21.6827 0.0751304 21.6722 0L20.2364 0.211826C20.2374 0.224348 20.3616 1.24487 19.7512 2.06609C19.1209 1.78017 18.0086 1.42957 16.7084 1.70087C15.2131 2.01391 13.9035 3.04383 12.8162 4.76035L12.4792 5.29252L12.9487 5.70991C12.9832 5.73913 13.4757 6.16487 14.2374 6.33287C12.9696 7.82191 11.2698 8.97287 9.05656 9.84C6.73587 10.7499 4.34526 11.809 2.84578 13.8365C1.99535 14.9875 1.54039 16.4744 1.56543 18.023C1.59152 19.6132 2.12578 21.0772 3.07222 22.1447C3.94067 23.1325 5.13847 23.7711 6.44265 23.9416C6.72126 23.9802 7.00613 23.999 7.2983 23.999C8.21343 23.999 9.18074 23.8111 10.1376 23.4417C12.8893 22.3826 14.7258 19.6779 16.1595 17.1725C17.3334 15.1231 18.3644 12.8108 19.4047 9.89739C19.7929 10.3075 20.179 10.4974 20.2093 10.512L20.7748 10.7823L21.1223 10.2553C22.2399 8.55861 22.6458 6.93183 22.3296 5.41983V5.42087ZM18.044 9.38609C17.0319 12.2212 16.0353 14.4626 14.9042 16.4379C13.5978 18.72 11.9491 21.1753 9.62213 22.0706C8.57448 22.4734 5.947 23.1923 4.15326 21.167C2.70178 19.5266 2.635 16.5736 4.00717 14.7172C5.27709 13.0007 7.45691 12.0428 9.58143 11.2101C12.0148 10.2543 13.8993 8.97496 15.3237 7.30748C15.3381 7.4078 15.3555 7.50768 15.3759 7.60696L15.379 7.61739C15.3884 7.66226 15.3988 7.70609 15.4103 7.74991L15.4155 7.77704L15.4531 7.91165L15.4614 7.93774C15.474 7.98052 15.4886 8.0233 15.5032 8.06609L15.5063 8.07652C15.5413 8.17371 15.581 8.26913 15.6253 8.36243L15.6336 8.37913L15.692 8.49287L15.7046 8.51374C15.7265 8.55339 15.7505 8.592 15.7745 8.63061L15.7912 8.65461C15.8162 8.69322 15.8433 8.73183 15.8715 8.76939L16.0249 8.96974L16.2691 9.03235H16.2712L16.3787 9.05635L16.4016 9.06052L16.5091 9.07826L16.5279 9.08035L16.6312 9.09078L16.6447 9.09183C16.727 9.09828 16.8095 9.10072 16.892 9.09913H16.8993C16.9359 9.09809 16.9724 9.09704 17.01 9.09391H17.0287L17.1414 9.08348L17.1623 9.08139L17.2729 9.06783H17.2781L17.3929 9.04904L17.4138 9.04487L17.5265 9.024L17.5411 9.01983L17.6454 8.99583L17.6621 8.9927C17.7434 8.97272 17.8242 8.95045 17.9042 8.92591H17.9063C17.9845 8.90173 18.0621 8.87563 18.139 8.84765L18.1578 8.84139L18.2538 8.80591L18.2642 8.80278C18.1828 9.01148 18.1077 9.20974 18.0451 9.38713L18.044 9.38609ZM20.3303 8.7433C20.1648 8.52104 20.0637 8.25749 20.0381 7.98157C20.0235 7.83548 20.0277 7.68 20.0486 7.52035L20.275 5.86957L18.9185 6.81496C18.5063 7.10296 17.5515 7.61739 16.8889 7.63409C16.6395 7.01426 16.722 5.92174 16.8148 5.42296L17.1279 3.78574L15.7223 4.65809C15.6592 4.69768 15.5941 4.73391 15.5272 4.76661C15.1307 4.95756 14.778 4.95548 14.5014 4.88974C15.2507 3.92452 16.0833 3.33809 16.9828 3.14296C18.3467 2.8487 19.4611 3.56243 19.4966 3.58539L19.5101 3.59374C19.5206 3.60104 20.6204 4.34087 20.9105 5.72556C21.1025 6.64278 20.9073 7.65496 20.3303 8.7433Z" fill="#7D829E"/>
<path d="M8.01613 14.9762L7.58517 13.5737C5.77161 14.1456 4.92535 15.3675 4.53404 16.2909C4.27591 16.8908 4.13698 17.5351 4.125 18.188L5.57543 18.164C5.57543 18.14 5.56396 15.7494 8.01613 14.9762Z" fill="#7D829E"/>
</svg>
