<svg width="169" height="45" viewBox="0 0 169 45" fill="none" xmlns="http://www.w3.org/2000/svg">
<path d="M33.8085 42.6634V39.0457H36.4905V39.6576H34.5389V40.4595H36.3551V41.0693H34.5389V42.0536H36.5598V42.6634H33.8085ZM37.2093 39.0457H37.9032V39.6867H37.2098L37.2093 39.0457ZM37.2093 40.0427H37.9032V42.6634H37.2098V40.0422L37.2093 40.0427ZM41.0327 42.6634H40.3393V41.3253C40.3393 41.0428 40.3245 40.8598 40.2949 40.7763C40.2686 40.6982 40.218 40.6305 40.1505 40.5832C40.0794 40.5357 39.9953 40.5115 39.9099 40.5139C39.7898 40.5139 39.6824 40.5467 39.5872 40.6128C39.4939 40.6751 39.4246 40.7673 39.3905 40.8741C39.3545 40.9826 39.3376 41.1835 39.3376 41.476V42.6634H38.6442V40.0422H39.2879V40.4267C39.5169 40.131 39.8051 39.9829 40.1521 39.9829C40.305 39.9829 40.4441 40.0104 40.571 40.066C40.6979 40.1204 40.7931 40.1913 40.8587 40.2765C40.9238 40.3621 40.9693 40.4589 40.9941 40.5674C41.0206 40.6758 41.0327 40.8318 41.0327 41.0344V42.6634ZM42.4623 39.0457V40.3759C42.6855 40.1141 42.9532 39.9835 43.2642 39.9835C43.4234 39.9835 43.5677 40.0131 43.6957 40.0723C43.8243 40.1315 43.9205 40.2072 43.9861 40.2992C44.0506 40.3912 44.0951 40.4933 44.1189 40.6054C44.1427 40.717 44.1548 40.891 44.1548 41.1264V42.6634H43.462V41.2787C43.462 41.0037 43.4487 40.8302 43.4223 40.7551C43.3966 40.6827 43.3475 40.6209 43.2827 40.5795C43.2074 40.5335 43.1202 40.5107 43.032 40.5139C42.9172 40.5139 42.8141 40.542 42.7241 40.5975C42.6309 40.657 42.5606 40.7463 42.5248 40.8509C42.4835 40.9635 42.4623 41.1301 42.4623 41.3507V42.6634H41.7684V39.0457H42.4623ZM46.4111 41.8293L47.1019 41.9457C47.0135 42.1985 46.8723 42.391 46.6814 42.5238C46.4899 42.656 46.2498 42.7221 45.9621 42.7221C45.5062 42.7221 45.1687 42.574 44.9503 42.2752C44.7773 42.0372 44.6911 41.7368 44.6911 41.3729C44.6911 40.9387 44.8048 40.598 45.0323 40.3521C45.2586 40.1062 45.5453 39.9835 45.8928 39.9835C46.2831 39.9835 46.5904 40.112 46.8157 40.3696C47.041 40.6271 47.1489 41.0212 47.1389 41.5527H45.4014C45.4067 41.7584 45.4623 41.9182 45.5696 42.033C45.6202 42.0883 45.6821 42.1322 45.7511 42.1616C45.82 42.1911 45.8945 42.2055 45.9695 42.2038C46.0682 42.2072 46.1649 42.1759 46.2429 42.1155C46.317 42.0557 46.3736 41.9605 46.4111 41.8293ZM46.4508 41.1285C46.4455 40.9275 46.3937 40.7752 46.2953 40.671C46.2498 40.6208 46.1942 40.5808 46.1321 40.5537C46.07 40.5266 46.0029 40.5131 45.9351 40.5139C45.8642 40.5122 45.7938 40.5262 45.7289 40.5548C45.664 40.5834 45.6062 40.626 45.5596 40.6795C45.4612 40.789 45.4131 40.9392 45.4141 41.1285H46.4508ZM47.7392 39.0457H48.4326V39.6867H47.7397V39.0457H47.7392ZM47.7392 40.0427H48.4326V42.6634H47.7397V40.0422L47.7392 40.0427ZM50.3805 40.0422V40.5954H49.9066V41.6516C49.9066 41.8653 49.9114 41.9901 49.9204 42.025L49.9817 42.1133L50.0997 42.1477C50.1637 42.1477 50.2562 42.125 50.3779 42.0805L50.4376 42.619C50.2763 42.6877 50.0939 42.7221 49.8892 42.7221C49.7736 42.724 49.6589 42.7026 49.5517 42.6592C49.4641 42.6272 49.3874 42.5709 49.3307 42.4968C49.2782 42.4152 49.2448 42.3228 49.2328 42.2265C49.2185 42.1461 49.2111 41.9832 49.2111 41.7378V40.5954H48.8922V40.0422H49.2111V39.5212L49.9066 39.1166V40.0422H50.3805ZM50.8967 39.0457H51.5907V42.6634H50.8967V39.0457ZM52.3369 39.0457H53.0303V39.6867H52.3369V39.0457ZM52.3369 40.0427H53.0303V42.6634H52.3369V40.0427ZM56.0609 40.8175L55.3771 40.9413C55.3543 40.8038 55.302 40.7017 55.2205 40.6324C55.1391 40.5637 55.0333 40.5288 54.9037 40.5288C54.7307 40.5288 54.5932 40.5885 54.4901 40.7075C54.3875 40.8265 54.3362 41.0265 54.3362 41.3062C54.3362 41.6167 54.3885 41.8367 54.4927 41.9652C54.5975 42.0932 54.7371 42.1567 54.9132 42.1567C55.0454 42.1567 55.1528 42.1197 55.2364 42.0456C55.3205 41.9705 55.3802 41.8415 55.4146 41.6595L56.0953 41.7748C56.0244 42.0874 55.889 42.3233 55.6881 42.483C55.4876 42.6428 55.2184 42.7221 54.8815 42.7221C54.498 42.7221 54.1929 42.601 53.9644 42.3598C53.7369 42.1181 53.6227 41.7833 53.6227 41.3554C53.6227 40.9228 53.7369 40.5859 53.966 40.3452C54.1944 40.104 54.5038 39.9829 54.8942 39.9829C55.2126 39.9829 55.4664 40.0517 55.6553 40.1892C55.8435 40.3267 55.979 40.5356 56.0609 40.8175ZM57.3128 39.0457V40.3759C57.5366 40.1141 57.8042 39.9835 58.1147 39.9835C58.2744 39.9835 58.4182 40.0131 58.5468 40.0723C58.6748 40.1315 58.7716 40.2072 58.8366 40.2992C58.9017 40.3912 58.9461 40.4933 58.9699 40.6054C58.9937 40.717 59.0053 40.891 59.0053 41.1264V42.6634H58.3125V41.2787C58.3125 41.0037 58.2992 40.8302 58.2728 40.7551C58.2471 40.6827 58.198 40.6209 58.1332 40.5795C58.058 40.5336 57.971 40.5108 57.883 40.5139C57.7677 40.5139 57.6646 40.542 57.5746 40.5975C57.4815 40.6569 57.4113 40.7462 57.3758 40.8509C57.334 40.9635 57.3128 41.1301 57.3128 41.3507V42.6634H56.6194V39.0457H57.3128ZM61.2616 41.8293L61.9529 41.9457C61.864 42.1985 61.7234 42.391 61.5324 42.5238C61.3404 42.656 61.1003 42.7221 60.8131 42.7221C60.3567 42.7221 60.0198 42.574 59.8008 42.2752C59.6284 42.0372 59.5422 41.7368 59.5422 41.3729C59.5422 40.9387 59.6553 40.598 59.8828 40.3521C60.1097 40.1062 60.3963 39.9835 60.7433 39.9835C61.1336 39.9835 61.4414 40.112 61.6662 40.3696C61.8921 40.6271 61.9994 41.0212 61.9899 41.5527H60.2525C60.2578 41.7584 60.3133 41.9182 60.4201 42.033C60.4707 42.0883 60.5326 42.1322 60.6016 42.1616C60.6705 42.1911 60.745 42.2055 60.82 42.2038C60.9188 42.2073 61.0158 42.1761 61.094 42.1155C61.168 42.0557 61.2241 41.9605 61.2616 41.8293ZM61.3013 41.1285C61.296 40.9275 61.2447 40.7752 61.1463 40.671C61.1008 40.6207 61.0451 40.5807 60.9829 40.5536C60.9207 40.5265 60.8534 40.513 60.7856 40.5139C60.7147 40.5122 60.6443 40.5262 60.5794 40.5548C60.5145 40.5834 60.4567 40.626 60.4101 40.6795C60.3117 40.789 60.2636 40.9392 60.2646 41.1285H61.3013ZM63.254 42.6634H62.5606V40.0422H63.2043V40.415C63.3148 40.2389 63.4137 40.1226 63.502 40.067C63.5917 40.0104 63.6959 39.9812 63.8019 39.9829C63.9601 39.9829 64.1119 40.0268 64.2584 40.1136L64.0431 40.7181C63.9268 40.6425 63.8178 40.6044 63.7178 40.6044C63.6286 40.602 63.5413 40.6306 63.4708 40.6853C63.4031 40.7382 63.3503 40.8355 63.3122 40.9746C63.273 41.1148 63.254 41.4073 63.254 41.8536V42.6634ZM66.0371 42.6634V39.0457H68.7186V39.6576H66.767V40.4595H68.5832V41.0693H66.7675V42.0536H68.7879V42.6634H66.0371ZM71.1627 42.6634V42.271C71.0671 42.4109 70.9378 42.5244 70.7866 42.601C70.6311 42.6819 70.4671 42.7226 70.2942 42.7226C70.1181 42.7226 69.9599 42.6835 69.8208 42.6063C69.6861 42.5348 69.5792 42.4203 69.5172 42.281C69.4543 42.1408 69.4231 41.9478 69.4231 41.7008V40.0422H70.117V41.2465C70.117 41.6146 70.1292 41.8404 70.154 41.9235C70.1772 42.0031 70.2264 42.0727 70.2937 42.1213C70.3614 42.1694 70.4471 42.1937 70.5507 42.1937C70.6692 42.1937 70.775 42.162 70.8691 42.0969C70.9574 42.0387 71.0248 41.9538 71.0616 41.8547C71.096 41.7584 71.1129 41.5231 71.1129 41.1476V40.0422H71.8063V42.6629L71.1627 42.6634ZM73.2238 42.6634H72.5304V40.0422H73.1746V40.415C73.2846 40.2389 73.384 40.1226 73.4718 40.067C73.5615 40.0104 73.6657 39.9812 73.7717 39.9829C73.9304 39.9829 74.0822 40.0268 74.2282 40.1136L74.0134 40.7181C73.8971 40.6425 73.7887 40.6044 73.6882 40.6044C73.5988 40.6019 73.5113 40.6305 73.4406 40.6853C73.3735 40.7382 73.3206 40.8355 73.282 40.9746C73.2428 41.1148 73.2238 41.4073 73.2238 41.8536V42.6634ZM74.4016 41.3158C74.4016 41.0857 74.4588 40.863 74.5725 40.6467C74.6851 40.432 74.8459 40.2675 75.0543 40.1538C75.2687 40.0389 75.5087 39.9803 75.7519 39.9835C76.1476 39.9835 76.4728 40.112 76.7262 40.3696C76.9795 40.6271 77.1064 40.9524 77.1064 41.3454C77.1064 41.7421 76.9785 42.071 76.7225 42.3312C76.4665 42.592 76.1444 42.7221 75.7567 42.7221C75.5166 42.7221 75.287 42.6676 75.0691 42.5592C74.8571 42.4568 74.6831 42.2897 74.572 42.0821C74.4588 41.8727 74.4016 41.6167 74.4016 41.3158ZM75.1125 41.3528C75.1125 41.6125 75.1738 41.8119 75.2976 41.9499C75.4214 42.088 75.5732 42.1572 75.7535 42.1572C75.9349 42.1572 76.0867 42.0885 76.2094 41.9499C76.3316 41.8119 76.393 41.6114 76.393 41.3475C76.393 41.091 76.3316 40.8942 76.2094 40.7557C76.1535 40.6895 76.0836 40.6366 76.0048 40.6008C75.9259 40.5649 75.8401 40.547 75.7535 40.5483C75.5737 40.5483 75.4214 40.6176 75.2976 40.7557C75.1738 40.8942 75.1125 41.0926 75.1125 41.3528ZM77.6057 41.0048H78.9677V41.6987H77.6057V41.0048ZM79.0941 42.6634V42.0044L80.9944 39.6571H79.3093V39.0452H81.957V39.6127L79.9757 42.053H82.0332V42.6629L79.0941 42.6634ZM83.0434 40.8424L82.414 40.7281C82.4843 40.4753 82.6065 40.2876 82.7794 40.1659C82.9519 40.0443 83.2084 39.9835 83.549 39.9835C83.8584 39.9835 84.0885 40.02 84.2397 40.0929C84.3915 40.1665 84.4978 40.2595 84.5592 40.3722C84.6211 40.4849 84.6518 40.6922 84.6518 40.9921L84.6444 41.8018C84.6444 42.0329 84.656 42.2022 84.6782 42.3111C84.6999 42.4206 84.7417 42.538 84.8025 42.6634H84.117C84.0918 42.5962 84.0696 42.5279 84.0504 42.4587L84.025 42.3773C83.9156 42.4864 83.7868 42.5743 83.6453 42.6364C83.5087 42.6939 83.3619 42.7232 83.2137 42.7226C82.9434 42.7226 82.7313 42.6497 82.5758 42.5031C82.4997 42.4325 82.4395 42.3464 82.3992 42.2507C82.359 42.1549 82.3397 42.0516 82.3426 41.9478C82.3426 41.7997 82.3775 41.6675 82.4484 41.5511C82.5192 41.4358 82.6181 41.3464 82.7456 41.2851C82.8736 41.2237 83.0571 41.1693 83.2972 41.1238C83.622 41.0624 83.8457 41.0064 83.9705 40.9529V40.8842C83.9705 40.7509 83.9388 40.6557 83.8722 40.5986C83.806 40.5425 83.6823 40.5139 83.4993 40.5139C83.3766 40.5139 83.2798 40.5383 83.211 40.5869C83.1417 40.6351 83.0862 40.7202 83.0434 40.8424ZM83.9711 41.4046C83.8323 41.4473 83.6914 41.4828 83.549 41.5109C83.3565 41.5522 83.2311 41.5924 83.1714 41.6315C83.13 41.6575 83.0959 41.6935 83.0722 41.7363C83.0485 41.779 83.0361 41.827 83.036 41.8759C83.0355 41.9231 83.0449 41.9699 83.0636 42.0132C83.0822 42.0566 83.1098 42.0955 83.1444 42.1276C83.181 42.163 83.2243 42.1906 83.2719 42.2088C83.3194 42.227 83.3701 42.2354 83.421 42.2334C83.5458 42.2334 83.6654 42.1927 83.7785 42.1102C83.8579 42.0545 83.9161 41.9736 83.9436 41.8806C83.9621 41.8214 83.9705 41.7087 83.9705 41.5432L83.9711 41.4046ZM86.0623 39.0457V40.3759C86.2855 40.1141 86.5526 39.9835 86.8642 39.9835C87.0234 39.9835 87.1677 40.0131 87.2957 40.0723C87.4243 40.1315 87.5205 40.2072 87.5861 40.2992C87.6506 40.3912 87.6951 40.4933 87.7189 40.6054C87.7427 40.717 87.7548 40.891 87.7548 41.1264V42.6634H87.0609V41.2787C87.0609 41.0037 87.0477 40.8302 87.0223 40.7551C86.9966 40.6827 86.9475 40.6209 86.8827 40.5795C86.8074 40.5335 86.7202 40.5107 86.632 40.5139C86.5167 40.5139 86.4135 40.542 86.3231 40.5975C86.2302 40.6571 86.1603 40.7464 86.1247 40.8509C86.0824 40.9635 86.0623 41.1301 86.0623 41.3507V42.6634H85.3684V39.0457H86.0623ZM88.4932 39.0457H89.1866V42.6634H88.4932V39.0457ZM91.6571 42.6634V42.271C91.5617 42.4108 91.4325 42.5244 91.2815 42.601C91.126 42.6819 90.9616 42.7226 90.7886 42.7226C90.613 42.7226 90.4554 42.6835 90.3152 42.6063C90.1805 42.5347 90.0735 42.4202 90.0111 42.281C89.9492 42.1408 89.918 41.9478 89.918 41.7008V40.0422H90.6109V41.2465C90.6109 41.6146 90.6241 41.8404 90.6495 41.9235C90.6723 42.0032 90.7213 42.0729 90.7886 42.1213C90.8563 42.1694 90.942 42.1937 91.0451 42.1937C91.1636 42.1937 91.2699 42.162 91.364 42.0969C91.4521 42.0385 91.5195 41.9537 91.5566 41.8547C91.591 41.7584 91.6079 41.5231 91.6079 41.1476V40.0422H92.3013V42.6629H91.6576L91.6571 42.6634ZM95.4387 42.6634H94.7453V41.3253C94.7453 41.0428 94.731 40.8598 94.7009 40.7763C94.6746 40.6982 94.624 40.6305 94.5565 40.5832C94.4856 40.5357 94.4017 40.5114 94.3164 40.5139C94.1958 40.5139 94.0884 40.5467 93.9922 40.6128C93.8994 40.6754 93.8304 40.7675 93.7965 40.8741C93.761 40.9826 93.7436 41.1835 93.7436 41.476V42.6634H93.0502V40.0422H93.6944V40.4267C93.9229 40.131 94.2106 39.9829 94.5576 39.9829C94.7109 39.9829 94.8506 40.0104 94.9775 40.066C95.1039 40.1204 95.1996 40.1913 95.2647 40.2765C95.3298 40.3621 95.3747 40.4589 95.4006 40.5674C95.4255 40.6758 95.4387 40.8318 95.4387 41.0344V42.6634ZM96.1131 42.8358L96.9053 42.9326C96.9186 43.0241 96.9492 43.0876 96.9963 43.122C97.0619 43.1717 97.1656 43.196 97.3073 43.196C97.4887 43.196 97.6241 43.1696 97.7146 43.114C97.7793 43.0735 97.8281 43.0118 97.8526 42.9395C97.8738 42.8824 97.8843 42.7755 97.8843 42.6211V42.2387C97.6775 42.5217 97.4163 42.6634 97.1005 42.6634C96.7483 42.6634 96.469 42.5148 96.2633 42.2165C96.103 41.9816 96.0221 41.6886 96.0221 41.338C96.0221 40.899 96.1273 40.5637 96.3389 40.3309C96.5505 40.0993 96.8128 39.9829 97.1275 39.9829C97.4512 39.9829 97.7193 40.1257 97.9293 40.4103V40.0422H98.5783V42.3937C98.5783 42.7025 98.5529 42.9337 98.5021 43.087C98.4503 43.2404 98.3789 43.3605 98.2868 43.4478C98.1808 43.5426 98.0548 43.6126 97.9182 43.6524C97.7643 43.7016 97.5696 43.726 97.3343 43.726C96.89 43.726 96.5753 43.6498 96.3897 43.498C96.3012 43.4301 96.2298 43.3423 96.1813 43.2419C96.1328 43.1414 96.1086 43.0309 96.1104 42.9194L96.1131 42.8358ZM96.7329 41.2983C96.7329 41.5765 96.7863 41.7796 96.8942 41.9097C96.9414 41.9705 97.0019 42.0195 97.071 42.0531C97.1402 42.0866 97.2162 42.1038 97.293 42.1033C97.4623 42.1033 97.6051 42.0367 97.7214 41.9044C97.8389 41.7722 97.897 41.576 97.897 41.3158C97.897 41.0444 97.8415 40.8434 97.7294 40.7118C97.6783 40.6486 97.6135 40.598 97.5399 40.5637C97.4663 40.5294 97.3859 40.5124 97.3047 40.5139C97.226 40.5125 97.148 40.5293 97.0769 40.5628C97.0057 40.5964 96.9432 40.6459 96.8942 40.7075C96.7863 40.8366 96.7329 41.0339 96.7329 41.2983ZM99.0553 41.9155L99.7514 41.8092C99.7805 41.9441 99.8408 42.0467 99.9312 42.1165C100.022 42.1869 100.148 42.2218 100.311 42.2218C100.491 42.2218 100.626 42.1884 100.716 42.1234C100.745 42.1021 100.769 42.074 100.785 42.0416C100.8 42.0091 100.808 41.9733 100.807 41.9372L100.758 41.8071C100.723 41.7743 100.646 41.7436 100.526 41.7151C99.9672 41.5924 99.6123 41.4802 99.4626 41.3776C99.3641 41.3147 99.2836 41.2272 99.229 41.1239C99.1744 41.0205 99.1476 40.9048 99.1511 40.7879C99.1511 40.561 99.241 40.3701 99.4203 40.2151C99.6001 40.0607 99.8778 39.9835 100.255 39.9835C100.613 39.9835 100.88 40.0416 101.054 40.1591C101.228 40.2754 101.349 40.4478 101.414 40.6768L100.761 40.7974C100.737 40.7027 100.681 40.6196 100.601 40.5637C100.523 40.5087 100.411 40.4817 100.267 40.4817C100.085 40.4817 99.9539 40.5076 99.8746 40.5584L99.7958 40.6991L99.8645 40.8249C99.9275 40.871 100.143 40.936 100.512 41.0196C100.881 41.1042 101.14 41.2068 101.286 41.3279C101.431 41.4517 101.504 41.6236 101.504 41.8436C101.504 42.0843 101.403 42.2905 101.202 42.4629C101.002 42.6364 100.704 42.7221 100.311 42.7221C99.9545 42.7221 99.672 42.6502 99.4642 42.5053C99.2596 42.3661 99.1139 42.1559 99.0553 41.9155ZM102.866 42.6634L101.81 40.0427H102.538L103.031 41.3798L103.175 41.8267C103.212 41.713 103.236 41.6384 103.246 41.6019C103.269 41.5278 103.294 41.4538 103.32 41.3798L103.819 40.0427H104.532L103.491 42.6634H102.866ZM106.509 41.8293L107.2 41.9457C107.112 42.1985 106.97 42.391 106.779 42.5238C106.588 42.656 106.348 42.7221 106.06 42.7221C105.604 42.7221 105.267 42.574 105.048 42.2752C104.875 42.0372 104.79 41.7368 104.79 41.3729C104.79 40.9387 104.902 40.598 105.129 40.3521C105.357 40.1062 105.644 39.9835 105.991 39.9835C106.381 39.9835 106.688 40.112 106.914 40.3696C107.139 40.6271 107.247 41.0212 107.237 41.5527H105.5C105.505 41.7584 105.56 41.9182 105.668 42.033C105.718 42.0883 105.78 42.1322 105.849 42.1616C105.918 42.1911 105.993 42.2055 106.068 42.2038C106.166 42.2072 106.263 42.1759 106.341 42.1155C106.415 42.0557 106.472 41.9605 106.509 41.8293M106.549 41.1285C106.544 40.9275 106.492 40.7752 106.393 40.671C106.347 40.6208 106.292 40.5807 106.23 40.5536C106.168 40.5266 106.101 40.513 106.033 40.5139C105.962 40.5122 105.892 40.5261 105.827 40.5547C105.762 40.5833 105.705 40.6259 105.658 40.6795C105.559 40.789 105.511 40.9392 105.512 41.1285H106.549ZM108.501 42.6634H107.808V40.0422H108.452V40.415C108.562 40.2389 108.661 40.1226 108.749 40.067C108.837 40.011 108.937 39.9829 109.048 39.9829C109.207 39.9829 109.359 40.0268 109.505 40.1136L109.291 40.7181C109.174 40.6425 109.065 40.6044 108.965 40.6044C108.876 40.6019 108.788 40.6305 108.718 40.6853C108.651 40.7382 108.598 40.8355 108.559 40.9746C108.521 41.1148 108.501 41.4073 108.501 41.8536V42.6634ZM109.814 42.6634V39.0457H110.508V40.9656L111.32 40.0427H112.174L111.278 41L112.238 42.6634H111.491L110.832 41.4855L110.509 41.824V42.6634H109.815H109.814ZM114.203 41.8293L114.894 41.9457C114.805 42.1985 114.665 42.391 114.473 42.5238C114.281 42.656 114.042 42.7221 113.754 42.7221C113.298 42.7221 112.961 42.574 112.742 42.2752C112.569 42.0372 112.483 41.7368 112.483 41.3729C112.483 40.9387 112.596 40.598 112.824 40.3521C113.051 40.1062 113.337 39.9835 113.685 39.9835C114.075 39.9835 114.382 40.112 114.608 40.3696C114.833 40.6271 114.941 41.0212 114.931 41.5527H113.193C113.199 41.7584 113.255 41.9182 113.362 42.033C113.412 42.0884 113.474 42.1323 113.543 42.1617C113.612 42.1912 113.686 42.2055 113.761 42.2038C113.86 42.2072 113.957 42.1759 114.035 42.1155C114.109 42.0557 114.165 41.9605 114.203 41.8293ZM114.243 41.1285C114.237 40.9275 114.186 40.7752 114.087 40.671C114.042 40.6208 113.986 40.5807 113.924 40.5537C113.862 40.5266 113.794 40.513 113.727 40.5139C113.656 40.5121 113.585 40.526 113.52 40.5546C113.455 40.5832 113.397 40.6259 113.351 40.6795C113.253 40.789 113.205 40.9392 113.206 41.1285H114.243ZM116.222 39.0457V40.3759C116.446 40.1141 116.713 39.9835 117.024 39.9835C117.183 39.9835 117.328 40.0131 117.456 40.0723C117.584 40.1315 117.681 40.2072 117.747 40.2992C117.811 40.3912 117.856 40.4933 117.879 40.6054C117.903 40.717 117.915 40.891 117.915 41.1264V42.6634H117.222V41.2787C117.222 41.0037 117.208 40.8302 117.182 40.7551C117.157 40.6827 117.108 40.6209 117.043 40.5795C116.967 40.5335 116.88 40.5107 116.792 40.5139C116.677 40.5139 116.574 40.542 116.484 40.5975C116.391 40.6571 116.321 40.7464 116.285 40.8509C116.243 40.9635 116.222 41.1301 116.222 41.3507V42.6634H115.529V39.0457H116.222ZM119.318 42.6634H118.624V40.0422H119.268V40.415C119.378 40.2389 119.477 40.1226 119.566 40.067C119.655 40.0104 119.759 39.9812 119.865 39.9829C120.023 39.9829 120.175 40.0268 120.322 40.1136L120.107 40.7181C119.99 40.6425 119.881 40.6044 119.781 40.6044C119.692 40.602 119.605 40.6306 119.534 40.6853C119.467 40.7382 119.414 40.8355 119.376 40.9746C119.337 41.1148 119.318 41.4073 119.318 41.8536V42.6634ZM120.411 41.9155L121.107 41.8092C121.136 41.9441 121.197 42.0467 121.287 42.1165C121.378 42.1869 121.504 42.2218 121.668 42.2218C121.847 42.2218 121.982 42.1884 122.072 42.1234C122.101 42.1021 122.125 42.0741 122.141 42.0416C122.157 42.0092 122.165 41.9734 122.164 41.9372L122.114 41.8071C122.079 41.7743 122.002 41.7436 121.882 41.7151C121.323 41.5924 120.968 41.4802 120.819 41.3776C120.72 41.3147 120.64 41.2272 120.585 41.1239C120.53 41.0205 120.504 40.9048 120.507 40.7879C120.507 40.561 120.597 40.3701 120.777 40.2151C120.957 40.0607 121.234 39.9835 121.611 39.9835C121.969 39.9835 122.235 40.0416 122.41 40.1591C122.584 40.2754 122.705 40.4478 122.77 40.6768L122.117 40.7974C122.094 40.7028 122.037 40.6197 121.957 40.5637C121.879 40.5087 121.767 40.4817 121.623 40.4817C121.441 40.4817 121.31 40.5076 121.231 40.5584L121.152 40.6991L121.221 40.8249C121.283 40.871 121.499 40.936 121.868 41.0196C122.238 41.1042 122.496 41.2068 122.642 41.3279C122.787 41.4517 122.859 41.6236 122.859 41.8436C122.859 42.0843 122.759 42.2905 122.558 42.4629C122.358 42.6364 122.06 42.7221 121.667 42.7221C121.31 42.7221 121.028 42.6502 120.82 42.5053C120.616 42.3661 120.47 42.1559 120.411 41.9155ZM124.165 42.6634H123.472V40.0422H124.116V40.415C124.226 40.2389 124.325 40.1226 124.414 40.067C124.503 40.0104 124.607 39.9812 124.713 39.9829C124.872 39.9829 125.023 40.0268 125.17 40.1136L124.955 40.7181C124.838 40.6425 124.73 40.6044 124.629 40.6044C124.54 40.6021 124.453 40.6307 124.382 40.6853C124.316 40.7382 124.262 40.8355 124.224 40.9746C124.185 41.1148 124.165 41.4073 124.165 41.8536V42.6634ZM126.021 40.8424L125.392 40.7281C125.463 40.4753 125.585 40.2876 125.758 40.1659C125.93 40.0443 126.187 39.9835 126.528 39.9835C126.837 39.9835 127.068 40.02 127.218 40.0929C127.37 40.1665 127.477 40.2595 127.538 40.3722C127.6 40.4849 127.63 40.6922 127.63 40.9921L127.623 41.8018C127.623 42.0329 127.634 42.2022 127.657 42.3111C127.679 42.4206 127.72 42.538 127.781 42.6634H127.095C127.07 42.5962 127.048 42.5279 127.028 42.4587L127.004 42.3773C126.894 42.4864 126.765 42.5743 126.624 42.6364C126.487 42.6939 126.34 42.7232 126.192 42.7226C125.922 42.7226 125.71 42.6497 125.554 42.5031C125.478 42.4325 125.418 42.3464 125.378 42.2507C125.338 42.1549 125.318 42.0516 125.321 41.9478C125.321 41.7997 125.357 41.6675 125.427 41.5511C125.498 41.4358 125.596 41.3464 125.725 41.2851C125.852 41.2237 126.036 41.1693 126.276 41.1238C126.6 41.0624 126.824 41.0064 126.949 40.9529V40.8842C126.949 40.7509 126.917 40.6557 126.851 40.5986C126.785 40.5425 126.661 40.5139 126.478 40.5139C126.355 40.5139 126.258 40.5383 126.19 40.5869C126.12 40.6351 126.065 40.7202 126.022 40.8424M126.949 41.4046C126.81 41.4473 126.67 41.4828 126.528 41.5109C126.335 41.5522 126.21 41.5924 126.15 41.6315C126.06 41.6955 126.015 41.7775 126.015 41.8759C126.014 41.9231 126.023 41.9699 126.042 42.0132C126.061 42.0566 126.088 42.0955 126.123 42.1276C126.159 42.1629 126.203 42.1905 126.25 42.2087C126.298 42.2269 126.348 42.2353 126.399 42.2334C126.524 42.2334 126.644 42.1927 126.758 42.1102C126.837 42.0541 126.895 41.9733 126.923 41.8806C126.941 41.8214 126.949 41.7087 126.949 41.5432V41.4046ZM130.074 42.6634V42.271C129.979 42.4109 129.849 42.5244 129.698 42.601C129.543 42.6819 129.379 42.7226 129.206 42.7226C129.03 42.7226 128.872 42.6835 128.733 42.6063C128.598 42.5348 128.491 42.4203 128.429 42.281C128.366 42.1408 128.334 41.9478 128.334 41.7008V40.0422H129.028V41.2465C129.028 41.6146 129.04 41.8404 129.066 41.9235C129.089 42.003 129.138 42.0727 129.205 42.1213C129.273 42.1694 129.359 42.1937 129.462 42.1937C129.581 42.1937 129.687 42.162 129.781 42.0969C129.869 42.0385 129.936 41.9537 129.973 41.8547C130.008 41.7584 130.025 41.5231 130.025 41.1476V40.0422H130.718V42.6629L130.074 42.6634ZM131.42 40.0422H132.059V40.4002C132.288 40.1226 132.56 39.9829 132.876 39.9829C133.044 39.9829 133.189 40.0178 133.312 40.0871C133.437 40.1559 133.537 40.2606 133.616 40.4002C133.731 40.2606 133.855 40.1564 133.989 40.0866C134.122 40.0178 134.264 39.9829 134.416 39.9829C134.608 39.9829 134.77 40.0226 134.904 40.1009C135.038 40.1786 135.137 40.2939 135.203 40.4452C135.251 40.5568 135.275 40.7382 135.275 40.9878V42.6634H134.581V41.1656C134.581 40.9053 134.557 40.7382 134.509 40.662C134.446 40.5637 134.347 40.5139 134.213 40.5139C134.115 40.5144 134.019 40.5457 133.94 40.6033C133.851 40.6668 133.785 40.7582 133.754 40.863C133.717 40.9773 133.698 41.1576 133.698 41.4046V42.6634H133.004V41.2269C133.004 40.9714 132.992 40.807 132.967 40.7329C132.948 40.6667 132.908 40.6086 132.853 40.5674C132.789 40.5284 132.715 40.5096 132.641 40.5134C132.538 40.5121 132.438 40.5423 132.353 40.6002C132.265 40.6601 132.2 40.7479 132.169 40.8493C132.132 40.9577 132.113 41.1375 132.113 41.3893V42.6629H131.42V40.0422H131.42ZM33.7212 34.5627L34.7637 34.4612C34.8255 34.8108 34.9535 35.0673 35.145 35.2318C35.337 35.3958 35.5961 35.4777 35.9214 35.4777C36.2663 35.4777 36.5265 35.4048 36.7015 35.2593C36.8761 35.1128 36.9639 34.942 36.9639 34.7463C36.9665 34.6298 36.9273 34.5163 36.8533 34.4263C36.7793 34.339 36.6513 34.2623 36.4678 34.1967C36.3424 34.1528 36.0568 34.0756 35.6099 33.9651C35.036 33.8223 34.633 33.6477 34.4014 33.4404C34.0756 33.149 33.9126 32.7925 33.9126 32.3726C33.9126 32.1028 33.9893 31.8495 34.1427 31.6152C34.2956 31.3788 34.5161 31.2005 34.8054 31.0768C35.0932 30.954 35.4412 30.8922 35.8495 30.8922C36.5148 30.8922 37.0162 31.0387 37.3526 31.3312C37.689 31.6221 37.8662 32.0124 37.8826 32.5L36.8121 32.5466C36.7655 32.2737 36.6677 32.078 36.517 31.9579C36.3662 31.8389 36.1393 31.7791 35.8379 31.7791C35.5274 31.7791 35.283 31.8426 35.1074 31.9711C35.0535 32.0072 35.0096 32.0563 34.9797 32.1139C34.9498 32.1715 34.935 32.2358 34.9366 32.3006C34.9366 32.4255 34.9895 32.5333 35.0963 32.6227C35.2312 32.7364 35.5596 32.8539 36.0806 32.9771C36.6016 33.0998 36.9872 33.2273 37.2368 33.359C37.487 33.4907 37.6816 33.6705 37.8233 33.8979C37.964 34.1264 38.0349 34.4083 38.0349 34.7436C38.035 35.0469 37.947 35.3436 37.7816 35.5978C37.6123 35.8623 37.3738 36.0595 37.0649 36.1891C36.7566 36.3182 36.3715 36.3832 35.9108 36.3832C35.2397 36.3832 34.7245 36.2277 34.3649 35.9178C34.0052 35.6073 33.791 35.1567 33.7212 34.5627ZM39.1514 30.9831H40.168V31.9241H39.1514V30.9831ZM39.1514 32.445H40.168V36.2886H39.1514V32.445ZM44.9286 36.2886H43.9121V34.3269C43.9121 33.9117 43.8904 33.6435 43.8465 33.5219C43.8085 33.4067 43.7343 33.3069 43.6349 33.2373C43.5305 33.1682 43.4073 33.1331 43.2821 33.1368C43.106 33.1368 42.9484 33.1844 42.8082 33.2812C42.6717 33.3727 42.5702 33.5079 42.5205 33.6647C42.4682 33.8239 42.4422 34.1179 42.4422 34.5479V36.2886H41.4257V32.445H42.3703V33.0094C42.7056 32.5751 43.1282 32.3583 43.637 32.3583C43.8613 32.3583 44.066 32.3985 44.2521 32.4794C44.4373 32.5603 44.5785 32.6635 44.6737 32.7888C44.7689 32.9142 44.835 33.057 44.8725 33.2156C44.9106 33.3748 44.9291 33.6033 44.9291 33.9L44.9286 36.2886ZM46.0885 36.5419L47.2505 36.6836C47.2695 36.8185 47.314 36.9111 47.3843 36.9618C47.4811 37.0343 47.6329 37.0703 47.8407 37.0703C48.1057 37.0703 48.3046 37.0306 48.4379 36.9513C48.5325 36.8911 48.6038 36.8004 48.6399 36.6942C48.6711 36.6096 48.687 36.4541 48.687 36.2272V35.666C48.3834 36.0812 47.9994 36.2886 47.5366 36.2886C47.0204 36.2886 46.611 36.0701 46.3096 35.6338C46.0726 35.2884 45.9547 34.8595 45.9547 34.3448C45.9547 33.7012 46.1096 33.2088 46.4201 32.8692C46.564 32.705 46.7421 32.5742 46.9418 32.486C47.1415 32.3978 47.358 32.3542 47.5763 32.3583C48.0518 32.3583 48.4437 32.5667 48.7526 32.9845V32.445H49.7046V35.894C49.7046 36.3478 49.6665 36.6868 49.5919 36.9111C49.5174 37.1358 49.4121 37.3114 49.2772 37.44C49.1418 37.5669 48.9615 37.6674 48.7356 37.7399C48.5103 37.8118 48.2247 37.8483 47.8804 37.8483C47.2283 37.8483 46.7665 37.7367 46.4942 37.514C46.2218 37.2903 46.0853 37.0073 46.0853 36.6651L46.0885 36.5419ZM46.9971 34.2877C46.9971 34.695 47.076 34.9938 47.2346 35.1831C47.3917 35.3725 47.5869 35.4672 47.8191 35.4672C48.0666 35.4672 48.2771 35.3698 48.4485 35.1763C48.6193 34.9816 48.7055 34.6939 48.7055 34.3126C48.7055 33.9148 48.6235 33.6192 48.4596 33.4261C48.3845 33.3337 48.2894 33.2595 48.1815 33.2093C48.0735 33.1591 47.9556 33.1341 47.8365 33.1363C47.5932 33.1363 47.3922 33.2315 47.2346 33.4203C47.076 33.6097 46.9971 33.899 46.9971 34.2877ZM50.9327 30.9831H51.9492V36.2886H50.9327V30.9831ZM55.44 35.0652L56.4534 35.2355C56.3233 35.6068 56.117 35.8898 55.8361 36.0844C55.5553 36.2785 55.2031 36.3753 54.7815 36.3753C54.113 36.3753 53.6185 36.1569 53.2974 35.7205C53.0441 35.3709 52.9177 34.9293 52.9177 34.3956C52.9177 33.7588 53.0837 33.2595 53.417 32.8988C53.7502 32.5386 54.1706 32.3583 54.68 32.3583C55.2512 32.3583 55.7029 32.5471 56.034 32.9242C56.364 33.3024 56.5221 33.8805 56.5079 34.6601H53.9596C53.967 34.9615 54.049 35.1964 54.2055 35.364C54.3626 35.5317 54.5578 35.6153 54.7921 35.6153C54.9513 35.6153 55.0856 35.5719 55.1941 35.4851C55.3025 35.3984 55.3845 35.2582 55.44 35.0652ZM55.4982 34.037C55.4908 33.7429 55.4151 33.5187 55.2702 33.3664C55.2035 33.2927 55.1218 33.234 55.0306 33.1943C54.9394 33.1547 54.8408 33.1349 54.7413 33.1363C54.6374 33.134 54.5343 33.1545 54.4393 33.1965C54.3442 33.2384 54.2595 33.3008 54.1913 33.3791C54.0463 33.5404 53.9755 33.7599 53.9776 34.0375L55.4982 34.037ZM59.8479 36.2886V30.9831H63.7813V31.8802H60.9189V33.057H63.5824V33.9508H60.9189V35.3947H63.8834V36.2886H59.8479ZM67.536 36.2886V35.7136C67.3956 35.9188 67.2059 36.0854 66.9843 36.1981C66.7617 36.315 66.5139 36.3758 66.2624 36.3753C66.02 36.3795 65.7806 36.321 65.5674 36.2055C65.3699 36.1003 65.2133 35.932 65.1226 35.7274C65.0306 35.5222 64.9851 35.2387 64.9851 34.8769V32.445H66.0016V34.2116C66.0016 34.751 66.0201 35.0827 66.0577 35.2048C66.0947 35.3265 66.1635 35.4233 66.2624 35.4947C66.3613 35.5655 66.4872 35.601 66.6379 35.601C66.8124 35.601 66.9685 35.5534 67.106 35.4582C67.2435 35.363 67.3371 35.244 67.3879 35.1033C67.4381 34.9615 67.464 34.6167 67.464 34.0666V32.445H68.4811V36.2886H67.536ZM70.73 36.2886H69.7129V32.445H70.6581V32.9914C70.8189 32.7333 70.9648 32.563 71.0934 32.481C71.2224 32.399 71.3695 32.3583 71.5334 32.3583C71.7651 32.3583 71.9883 32.4223 72.203 32.5497L71.8883 33.4367C71.7164 33.3256 71.5577 33.2706 71.4102 33.2706C71.2679 33.2706 71.1468 33.3098 71.0484 33.3881C70.9495 33.4663 70.8712 33.6086 70.8152 33.8133C70.758 34.0185 70.73 34.448 70.73 35.1012V36.2886ZM72.6277 34.3126C72.6277 33.9746 72.7113 33.6483 72.8779 33.332C73.0352 33.0248 73.2819 32.7725 73.5856 32.6085C73.8994 32.4396 74.251 32.3535 74.6074 32.3583C75.1892 32.3583 75.6657 32.5476 76.0375 32.9247C76.4083 33.3024 76.5945 33.7789 76.5945 34.3559C76.5945 34.9377 76.4067 35.419 76.0317 35.8014C75.6562 36.1844 75.1844 36.3753 74.6143 36.3753C74.2625 36.3753 73.9267 36.296 73.6072 36.1368C73.2964 35.9861 73.0411 35.741 72.8779 35.4365C72.7113 35.1287 72.6277 34.7542 72.6277 34.3126ZM73.6702 34.3665C73.6702 34.7484 73.7601 35.0398 73.9415 35.2429C74.1229 35.445 74.3456 35.547 74.6111 35.547C74.8766 35.547 75.0993 35.445 75.2791 35.2429C75.4584 35.0398 75.5488 34.7457 75.5488 34.3596C75.5488 33.9831 75.4584 33.6938 75.2791 33.4907C75.1971 33.3939 75.0946 33.3166 74.9791 33.2642C74.8636 33.2118 74.7379 33.1856 74.6111 33.1876C74.3456 33.1876 74.1229 33.2881 73.9415 33.4907C73.7606 33.6938 73.6707 33.9852 73.6707 34.3671M79.9017 36.2886V30.9831H81.6206C82.2728 30.9831 82.6969 31.0096 82.8947 31.0625C83.1989 31.1423 83.4533 31.3158 83.6585 31.5819C83.8632 31.8484 83.9658 32.1927 83.9658 32.6153C83.9658 32.9406 83.9071 33.2146 83.7886 33.4367C83.6701 33.6589 83.5204 33.8334 83.3385 33.9603C83.1714 34.0799 82.9823 34.1653 82.7821 34.2116C82.5272 34.2618 82.1564 34.2872 81.6714 34.2872H80.9733V36.2886H79.9017ZM80.9727 31.8802V33.3865H81.5593C81.9819 33.3865 82.2643 33.3584 82.406 33.3029C82.5483 33.2474 82.6599 33.1601 82.7408 33.0427C82.8218 32.9242 82.8625 32.7867 82.8625 32.6301C82.8625 32.4371 82.8054 32.2774 82.6922 32.152C82.5795 32.0268 82.4274 31.9438 82.2611 31.9166C82.1342 31.8928 81.8766 31.8802 81.4905 31.8802H80.9727ZM85.8206 33.6176L84.8982 33.451C85.0014 33.0797 85.1807 32.8047 85.434 32.6259C85.6868 32.4477 86.0634 32.3583 86.5632 32.3583C87.0159 32.3583 87.3539 32.4117 87.5761 32.5196C87.7982 32.627 87.9542 32.7629 88.0447 32.9284C88.1351 33.0935 88.1801 33.397 88.1801 33.8381L88.1695 35.0255C88.1695 35.364 88.1859 35.6126 88.2187 35.7729C88.2504 35.9331 88.3118 36.1055 88.4017 36.2886H87.3952C87.3581 36.1901 87.3253 36.09 87.2968 35.9887C87.2865 35.9482 87.2746 35.9082 87.2614 35.8686C87.0868 36.0378 86.9017 36.1648 86.7039 36.2494C86.5061 36.334 86.2951 36.3753 86.0703 36.3753C85.6747 36.3753 85.3631 36.2679 85.1352 36.0532C84.9067 35.8385 84.793 35.5677 84.793 35.2387C84.793 35.0218 84.8448 34.8283 84.9485 34.6585C85.0516 34.4882 85.1971 34.3581 85.3848 34.2671C85.5715 34.1772 85.8413 34.0978 86.1935 34.0301C86.669 33.9408 86.998 33.8577 87.181 33.7805V33.6795C87.181 33.4838 87.1334 33.3447 87.0366 33.2616C86.9398 33.1781 86.7578 33.1363 86.4902 33.1363C86.3093 33.1363 86.1676 33.1723 86.0666 33.2437C85.9655 33.3145 85.8836 33.4394 85.8206 33.6176ZM87.181 34.4427C87.0509 34.4866 86.8451 34.5379 86.5632 34.5987C86.2808 34.659 86.0957 34.7177 86.0089 34.7759C85.8762 34.87 85.8101 34.9896 85.8101 35.1345C85.8101 35.2768 85.8629 35.3995 85.9693 35.5031C86.075 35.6073 86.2099 35.6586 86.3744 35.6586C86.5579 35.6586 86.7325 35.5983 86.8991 35.4783C87.0218 35.3862 87.1032 35.2736 87.1424 35.1414C87.1677 35.0541 87.181 34.8891 87.181 34.6458V34.4427ZM88.9237 32.445H90.0058L90.9261 35.1742L91.8226 32.445H92.8762L91.5185 36.1442L91.2762 36.8132C91.1863 37.038 91.1017 37.2094 91.0213 37.3278C90.9463 37.4395 90.8519 37.5367 90.7426 37.615C90.6244 37.6945 90.4932 37.7526 90.3549 37.7869C90.2015 37.8282 90.0291 37.8488 89.8355 37.8488C89.6424 37.8489 89.4498 37.8281 89.2611 37.7869L89.1696 36.9909C89.3115 37.0203 89.4558 37.0361 89.6007 37.038C89.8366 37.038 90.0122 36.9687 90.1248 36.8296C90.2385 36.691 90.3258 36.5144 90.3861 36.2997L88.9237 32.445ZM93.6738 32.445H94.611V32.9702C94.9463 32.5619 95.3461 32.3583 95.8089 32.3583C96.0549 32.3583 96.2691 32.4091 96.45 32.5101C96.6298 32.6116 96.7789 32.765 96.8942 32.9702C97.0635 32.765 97.246 32.6116 97.4417 32.5101C97.6348 32.4096 97.8496 32.3577 98.0673 32.3588C98.3498 32.3588 98.5883 32.4154 98.7835 32.5296C98.9792 32.6449 99.1252 32.8126 99.2219 33.0347C99.2912 33.1992 99.3272 33.4647 99.3272 33.8313V36.2891H98.3096V34.092C98.3096 33.7107 98.2752 33.4647 98.2049 33.3537C98.1107 33.2088 97.9658 33.1368 97.7712 33.1368C97.6284 33.1368 97.4945 33.1797 97.3692 33.2669C97.2433 33.3537 97.1534 33.4811 97.0979 33.6483C97.0413 33.8165 97.0143 34.0809 97.0143 34.4432V36.2891H95.9967V34.1819C95.9967 33.808 95.9792 33.5668 95.9427 33.4584C95.9151 33.361 95.8559 33.2754 95.7746 33.2151C95.6989 33.1622 95.5958 33.1358 95.4652 33.1358C95.3081 33.1358 95.1674 33.1781 95.042 33.2627C94.9137 33.3506 94.8187 33.4792 94.7723 33.6276C94.7178 33.7874 94.6903 34.0518 94.6903 34.421V36.288H93.6738V32.445ZM102.788 35.0652L103.802 35.2355C103.672 35.6068 103.465 35.8898 103.184 36.0844C102.903 36.2785 102.551 36.3753 102.13 36.3753C101.461 36.3753 100.967 36.1569 100.646 35.7205C100.392 35.3709 100.265 34.9293 100.265 34.3956C100.265 33.7588 100.432 33.2595 100.765 32.8988C101.098 32.5386 101.519 32.3583 102.028 32.3583C102.6 32.3583 103.051 32.5471 103.382 32.9242C103.712 33.3024 103.87 33.8805 103.856 34.6601H101.308C101.315 34.9615 101.397 35.1964 101.554 35.364C101.628 35.4453 101.719 35.5097 101.82 35.5531C101.921 35.5964 102.03 35.6176 102.14 35.6153C102.3 35.6153 102.434 35.5719 102.542 35.4851C102.651 35.3984 102.733 35.2582 102.788 35.0652ZM102.846 34.037C102.839 33.7429 102.763 33.5187 102.619 33.3664C102.552 33.2927 102.47 33.234 102.379 33.1943C102.288 33.1547 102.189 33.1349 102.09 33.1363C101.986 33.134 101.883 33.1545 101.788 33.1965C101.693 33.2384 101.608 33.3008 101.54 33.3791C101.395 33.5404 101.323 33.7599 101.326 34.0375L102.846 34.037ZM108.403 36.2886H107.386V34.3269C107.386 33.9117 107.365 33.6435 107.321 33.5219C107.283 33.4068 107.209 33.3071 107.109 33.2373C107.005 33.1681 106.881 33.133 106.756 33.1368C106.581 33.1368 106.422 33.1844 106.282 33.2812C106.146 33.3727 106.044 33.5079 105.995 33.6647C105.943 33.8239 105.917 34.1179 105.917 34.5479V36.2886H104.9V32.445H105.844V33.0094C106.18 32.5751 106.602 32.3583 107.111 32.3583C107.335 32.3583 107.54 32.3985 107.726 32.4794C107.912 32.5603 108.052 32.6635 108.148 32.7888C108.243 32.9142 108.31 33.057 108.347 33.2156C108.385 33.3748 108.403 33.6033 108.403 33.9V36.2886ZM111.419 32.445V33.2558H110.724V34.8045C110.724 35.1181 110.731 35.3016 110.745 35.3529L110.835 35.4814C110.885 35.5162 110.946 35.5338 111.007 35.5317C111.101 35.5317 111.237 35.5 111.416 35.4349L111.502 36.2235C111.247 36.3285 110.974 36.3803 110.699 36.3758C110.516 36.3758 110.351 36.3441 110.204 36.2838C110.056 36.2214 109.949 36.142 109.88 36.0442C109.811 35.9463 109.763 35.8141 109.736 35.6486C109.715 35.5301 109.704 35.2916 109.704 34.9319V33.2553H109.237V32.445H109.704V31.6813L110.724 31.0879V32.445H111.419ZM111.989 35.1921L113.01 35.0366C113.053 35.2344 113.141 35.3841 113.274 35.4867C113.407 35.5893 113.593 35.6406 113.831 35.6406C114.095 35.6406 114.292 35.593 114.425 35.4963C114.468 35.4653 114.503 35.4244 114.526 35.377C114.549 35.3296 114.561 35.2772 114.559 35.2244C114.56 35.1892 114.554 35.1541 114.542 35.1212C114.53 35.0882 114.511 35.0581 114.487 35.0324C114.436 34.9848 114.322 34.9398 114.146 34.8991C113.326 34.7177 112.806 34.5527 112.586 34.403C112.282 34.1957 112.13 33.9074 112.13 33.5377C112.13 33.2051 112.262 32.9247 112.525 32.6984C112.787 32.4715 113.195 32.3583 113.749 32.3583C114.274 32.3583 114.665 32.444 114.921 32.6148C115.176 32.7867 115.352 33.04 115.449 33.3754L114.49 33.5525C114.456 33.4135 114.373 33.2914 114.256 33.2088C114.142 33.1294 113.979 33.0898 113.766 33.0898C113.498 33.0898 113.307 33.1268 113.191 33.2014C113.155 33.2228 113.126 33.2531 113.106 33.2892C113.085 33.3254 113.075 33.3662 113.075 33.4076C113.075 33.4806 113.109 33.542 113.176 33.5922C113.268 33.6594 113.585 33.7556 114.126 33.8783C114.667 34.0016 115.046 34.1518 115.261 34.3306C115.473 34.512 115.579 34.7637 115.579 35.0869C115.579 35.4391 115.432 35.7422 115.138 35.9955C114.844 36.2484 114.408 36.3753 113.831 36.3753C113.308 36.3753 112.894 36.269 112.588 36.0569C112.288 35.8528 112.075 35.5446 111.989 35.1921ZM123.49 36.2886H122.324L121.862 35.0832H119.741L119.303 36.2891H118.167L120.233 30.9831H121.366L123.49 36.2886ZM121.518 34.1893L120.787 32.2208L120.07 34.1893H121.518ZM125.248 36.2886H124.231V32.445H125.175V32.9914C125.336 32.7333 125.482 32.563 125.611 32.481C125.739 32.399 125.886 32.3583 126.05 32.3583C126.283 32.3583 126.505 32.4223 126.72 32.5497L126.405 33.4367C126.233 33.3256 126.075 33.2706 125.927 33.2706C125.785 33.2706 125.664 33.3098 125.566 33.3881C125.467 33.4663 125.389 33.6086 125.332 33.8133C125.276 34.0185 125.247 34.448 125.247 35.1012V36.2886H125.248ZM129.606 35.0652L130.62 35.2355C130.49 35.6068 130.284 35.8898 130.003 36.0844C129.721 36.2785 129.369 36.3753 128.948 36.3753C128.279 36.3753 127.785 36.1569 127.464 35.7205C127.21 35.3709 127.083 34.9293 127.083 34.3956C127.083 33.7588 127.25 33.2595 127.583 32.8988C127.916 32.5386 128.337 32.3583 128.846 32.3583C129.418 32.3583 129.869 32.5471 130.2 32.9242C130.53 33.3024 130.688 33.8805 130.674 34.6601H128.126C128.133 34.9615 128.215 35.1964 128.372 35.364C128.528 35.5317 128.724 35.6153 128.958 35.6153C129.118 35.6153 129.252 35.5719 129.36 35.4851C129.469 35.3984 129.55 35.2582 129.606 35.0652ZM129.664 34.037C129.657 33.7429 129.581 33.5187 129.436 33.3664C129.37 33.2927 129.288 33.234 129.197 33.1943C129.106 33.1547 129.007 33.1349 128.908 33.1363C128.804 33.134 128.701 33.1545 128.606 33.1965C128.51 33.2384 128.426 33.3008 128.358 33.3791C128.213 33.5404 128.142 33.7599 128.144 34.0375L129.664 34.037ZM132.485 33.6176L131.562 33.451C131.665 33.0797 131.845 32.8047 132.098 32.6259C132.351 32.4477 132.727 32.3583 133.227 32.3583C133.68 32.3583 134.018 32.4117 134.241 32.5196C134.462 32.627 134.618 32.7629 134.709 32.9284C134.8 33.0935 134.845 33.397 134.845 33.8381L134.834 35.0255C134.834 35.364 134.85 35.6126 134.883 35.7729C134.915 35.9331 134.976 36.1055 135.066 36.2886H134.06C134.022 36.1901 133.99 36.0901 133.962 35.9887C133.951 35.9483 133.939 35.9082 133.925 35.8686C133.751 36.0378 133.566 36.1648 133.368 36.2494C133.17 36.334 132.96 36.3753 132.735 36.3753C132.339 36.3753 132.027 36.2679 131.799 36.0532C131.571 35.8385 131.456 35.5677 131.456 35.2387C131.456 35.0218 131.509 34.8283 131.613 34.6585C131.717 34.4882 131.869 34.3521 132.049 34.2671C132.235 34.1772 132.505 34.0978 132.857 34.0301C133.333 33.9408 133.662 33.8577 133.845 33.7805V33.6795C133.845 33.4838 133.798 33.3447 133.7 33.2616C133.604 33.1781 133.422 33.1363 133.155 33.1363C132.974 33.1363 132.832 33.1723 132.73 33.2437C132.629 33.3145 132.547 33.4394 132.485 33.6176ZM133.845 34.4427C133.715 34.4866 133.51 34.5379 133.227 34.5987C132.945 34.659 132.76 34.7177 132.673 34.7759C132.541 34.87 132.474 34.9896 132.474 35.1345C132.474 35.2768 132.527 35.3995 132.634 35.5031C132.739 35.6073 132.874 35.6586 133.039 35.6586C133.222 35.6586 133.397 35.5983 133.563 35.4783C133.679 35.3962 133.765 35.2776 133.806 35.1414C133.832 35.0541 133.845 34.8891 133.845 34.6458V34.4427ZM56.2672 10.1317H49.3132C49.3132 8.99088 49.1794 8.22503 48.9118 7.83523C48.4982 7.25873 47.3568 6.96995 45.4877 6.96995C43.6719 6.96995 42.4687 7.13603 41.8816 7.46818C41.2945 7.80244 41.0005 8.52757 41.0005 9.64408C41.0005 10.6548 41.2607 11.3212 41.7827 11.6402C42.1561 11.8665 42.6501 11.9998 43.2647 12.0395L44.6668 12.1384C47.6726 12.3378 49.5496 12.4785 50.2975 12.5583C52.6744 12.7979 54.3975 13.43 55.4664 14.4539C56.3074 15.2531 56.8093 16.2977 56.9691 17.5866C57.0632 18.3588 57.1092 19.2315 57.1092 20.2015C57.1092 22.4377 56.8955 24.0746 56.4692 25.1118C55.6955 27.0158 53.9559 28.2186 51.25 28.7237C50.1161 28.9373 48.3818 29.0437 46.0488 29.0437C42.1545 29.0437 39.4413 28.812 37.909 28.346C36.0288 27.7754 34.7885 26.6192 34.1887 24.8786C33.855 23.9091 33.6895 22.2949 33.6895 20.0349H40.6424L40.6435 20.613C40.6435 21.8189 40.9899 22.5937 41.6817 22.9396C42.1609 23.1776 42.7395 23.3024 43.4202 23.3178H45.9764C47.2806 23.3178 48.1131 23.2506 48.4723 23.1168C49.1117 22.8656 49.5316 22.4609 49.7316 21.9003C49.8379 21.5555 49.8913 21.1101 49.8913 20.5638C49.8913 19.3415 49.4449 18.5979 48.5532 18.3308C48.22 18.2255 46.6703 18.0779 43.9025 17.8923C41.6801 17.7336 40.1362 17.5808 39.272 17.4327C36.9956 17.0069 35.4787 16.1311 34.7213 14.8014C34.0555 13.6722 33.7233 11.9633 33.7233 9.67634C33.7233 7.93573 33.9031 6.53943 34.2628 5.48956C34.6224 4.43916 35.2021 3.64157 36.0018 3.09628C37.1749 2.2585 38.6743 1.76715 40.5001 1.62064C42.0197 1.48789 43.7042 1.42019 45.558 1.42019C48.476 1.42019 50.5561 1.58838 51.7959 1.92106C54.8217 2.73398 56.3344 5.0109 56.3344 8.75288C56.3344 9.05964 56.3122 9.5182 56.2672 10.1317ZM86.843 29.0437V1.27368H100.768C102.678 1.27368 104.135 1.42918 105.137 1.74123C107.427 2.45842 108.963 3.92824 109.751 6.14804C110.156 7.31374 110.36 9.06863 110.36 11.4117C110.36 14.2286 110.135 16.2522 109.688 17.485C108.795 19.9222 106.957 21.3265 104.181 21.6898C103.855 21.7448 102.466 21.7935 100.014 21.8326L98.7729 21.8739H94.3169V29.0437H86.8441H86.843ZM94.3174 15.4324H98.9771C100.454 15.3795 101.353 15.2658 101.676 15.0881C102.118 14.8453 102.414 14.3587 102.562 13.6293C102.657 13.1443 102.703 12.4224 102.703 11.4635C102.703 10.2888 102.61 9.41824 102.421 8.84967C102.153 8.05261 101.509 7.56814 100.489 7.39149C100.287 7.36504 99.8043 7.35076 99.0395 7.35076H94.3174V15.4324ZM126.314 24.2444H116.321L114.978 29.0437H107.245L115.59 1.27368H126.864L135.31 29.0437H127.74L126.314 24.2444ZM124.83 18.8348L121.327 6.797L117.929 18.8348H124.83ZM76.5273 5.18068C79.6097 5.18068 82.3611 6.60078 84.1694 8.82481L85.7804 5.37055C83.2607 2.98838 79.8319 1.51962 76.0492 1.51962C70.1599 1.51962 65.1221 5.07701 63.0551 10.1122H59.9134L58.0581 14.0884H62.0994C62.0673 14.4592 62.0505 14.8312 62.0492 15.2034C62.0492 15.6587 62.073 16.1099 62.1179 16.5547H60.0869L58.2326 20.5326H63.1514C65.2776 25.4402 70.2524 28.8855 76.0492 28.8855C78.9708 28.8855 81.682 28.0102 83.9261 26.5144V21.6396C82.1183 23.6975 79.4749 24.9981 76.5273 24.9981C73.082 24.9981 70.0514 23.2215 68.287 20.5326H78.5863L80.4412 16.5547H66.7722C66.6513 15.7381 66.6318 14.9098 66.7141 14.0884H81.5915L83.4459 10.1122H67.9993C69.7076 7.16406 72.8863 5.18068 76.5273 5.18068Z" fill="white"/>
<path d="M76.5276 5.29962C79.4651 5.29962 82.2164 6.61235 84.0771 8.89985L84.1972 9.04794L84.2786 8.87552L85.8891 5.42126L85.9251 5.34246L85.8632 5.28322C83.215 2.77993 79.7295 1.40161 76.0494 1.40161C73.1759 1.40161 70.4113 2.24098 68.0524 3.8298C65.7501 5.38107 63.9836 7.53793 62.9454 10.0671L63.0554 9.99309H59.837L59.8053 10.0618L57.9504 14.0392L57.8711 14.209H62.0997L61.9807 14.0794C61.9486 14.4534 61.9318 14.8285 61.9304 15.2038C61.9304 15.6502 61.9537 16.1098 61.9992 16.5673L62.1182 16.4362H60.0121L59.9804 16.5049L58.1244 20.4823L58.0456 20.6526H63.1516L63.0422 20.5801C65.2593 25.6978 70.3653 29.005 76.0494 29.005C78.8992 29.005 81.6452 28.1794 83.9925 26.6149L84.0448 26.58V21.3232L83.8365 21.5612C82.9241 22.6021 81.8002 23.4363 80.5399 24.0084C79.2795 24.5804 77.9117 24.877 76.5276 24.8785C73.242 24.8785 70.1987 23.2283 68.3867 20.4675L68.2873 20.6526H78.6633L78.695 20.5838L80.5499 16.6054L80.6292 16.4362H66.772L66.8905 16.5382C66.771 15.7315 66.7516 14.9131 66.8328 14.1016L66.7138 14.209H81.668L81.6997 14.1402L83.554 10.1629L83.6339 9.99309H67.9996L68.1027 10.1719C69.8444 7.16664 73.0728 5.29962 76.5276 5.29962ZM67.9996 10.2316H83.4456L83.3372 10.0618L81.4834 14.0392L81.5913 13.9704H66.6059L66.5943 14.0778C66.5127 14.9089 66.5326 15.7468 66.6535 16.5732L66.6694 16.6747H80.4414L80.3335 16.5055L78.4792 20.4828L78.5866 20.414H68.0657L68.1873 20.5976C70.0438 23.4282 73.1616 25.1165 76.5281 25.1165C79.3895 25.1165 82.1186 23.8789 84.0163 21.7188L83.8068 21.64V26.5154L83.8597 26.4165C81.5516 27.9541 78.851 28.7664 76.0494 28.7664C70.46 28.7664 65.4407 25.5153 63.2617 20.4849L63.2299 20.4135H58.2329L58.3418 20.5843L60.1956 16.6054L60.0872 16.6747H62.2504L62.2372 16.5435C62.1922 16.094 62.1684 15.6423 62.1684 15.2038C62.1684 14.8669 62.1853 14.5051 62.2187 14.0995L62.2292 13.9704H58.0589L58.1662 14.1402L60.0211 10.1629L59.9137 10.2316H63.1347L63.1649 10.1576C64.1862 7.67227 65.9226 5.55296 68.1863 4.02761C70.5039 2.46682 73.224 1.64067 76.0494 1.64067C79.6687 1.64067 83.0944 2.99572 85.6987 5.45723L85.6723 5.31971L84.0623 8.7745L84.2633 8.74911C82.3555 6.40608 79.537 5.06108 76.5276 5.06108C72.9871 5.06108 69.6809 6.97359 67.8959 10.0523L67.7922 10.2316H67.9996Z" fill="white"/>
</svg>
