<svg width="24" height="24" viewBox="0 0 24 24" fill="none" xmlns="http://www.w3.org/2000/svg">
<g clip-path="url(#clip0_165_1016)">
<path d="M11.9993 15.2725C12.4291 15.2725 12.8546 15.1879 13.2517 15.0234C13.6488 14.8589 14.0096 14.6178 14.3135 14.3139C14.6174 14.01 14.8584 13.6493 15.0229 13.2522C15.1874 12.8551 15.272 12.4296 15.272 11.9998C15.272 11.57 15.1874 11.1444 15.0229 10.7474C14.8584 10.3503 14.6174 9.98951 14.3135 9.68561C14.0096 9.38171 13.6488 9.14064 13.2517 8.97617C12.8546 8.8117 12.4291 8.72705 11.9993 8.72705C11.1313 8.72705 10.2989 9.07185 9.68512 9.68561C9.07137 10.2994 8.72656 11.1318 8.72656 11.9998C8.72656 12.8678 9.07137 13.7002 9.68512 14.3139C10.2989 14.9277 11.1313 15.2725 11.9993 15.2725Z" stroke="#7D829E" stroke-width="1.63636" stroke-linecap="round" stroke-linejoin="round"/>
<path d="M19.3391 14.9749C19.2069 15.2741 19.1675 15.606 19.2258 15.9278C19.2842 16.2497 19.4376 16.5466 19.6663 16.7804L19.7263 16.8393C19.9111 17.0234 20.0577 17.2421 20.1577 17.4829C20.2577 17.7238 20.3092 17.982 20.3092 18.2428C20.3092 18.5035 20.2577 18.7618 20.1577 19.0026C20.0577 19.2434 19.9111 19.4622 19.7263 19.6462C19.5421 19.8307 19.3234 19.977 19.0826 20.0769C18.8417 20.1768 18.5836 20.2282 18.3229 20.2282C18.0622 20.2282 17.804 20.1768 17.5632 20.0769C17.3224 19.977 17.1036 19.8307 16.9194 19.6462L16.8594 19.5862C16.6258 19.3577 16.329 19.2044 16.0074 19.1461C15.6858 19.0877 15.3541 19.127 15.0551 19.2589C14.7615 19.3845 14.5111 19.5932 14.3347 19.8594C14.1583 20.1255 14.0636 20.4375 14.0623 20.7568V20.9258C14.0685 21.1901 14.0218 21.453 13.925 21.699C13.8281 21.945 13.6831 22.1691 13.4983 22.3582C13.3136 22.5473 13.093 22.6976 12.8493 22.8002C12.6057 22.9028 12.344 22.9556 12.0796 22.9556C11.8153 22.9556 11.5536 22.9028 11.3099 22.8002C11.0663 22.6976 10.8456 22.5473 10.6609 22.3582C10.4762 22.1691 10.3311 21.945 10.2342 21.699C10.1374 21.453 10.0907 21.1901 10.0969 20.9258V20.8364C10.0893 20.5081 9.983 20.1896 9.79194 19.9225C9.60088 19.6554 9.33387 19.4519 9.02561 19.3386C8.72643 19.2064 8.39452 19.167 8.0727 19.2253C7.75089 19.2837 7.45393 19.4371 7.22016 19.6658L7.16125 19.7258C6.88393 20.0042 6.53016 20.194 6.14483 20.271C5.7595 20.348 5.35998 20.3088 4.99696 20.1584C4.63394 20.008 4.32379 19.7531 4.10585 19.4261C3.88792 19.0991 3.77203 18.7148 3.77289 18.3218C3.77289 18.0613 3.82425 17.8032 3.92402 17.5625C4.02379 17.3218 4.17001 17.1031 4.35434 16.9189L4.41325 16.8589C4.64176 16.6253 4.79506 16.3285 4.85339 16.0069C4.91172 15.6853 4.87241 15.3536 4.74052 15.0546C4.61501 14.7612 4.40646 14.5109 4.14053 14.3345C3.8746 14.1581 3.5629 14.0634 3.2438 14.0618H3.07471C2.81042 14.068 2.54756 14.0213 2.30158 13.9245C2.0556 13.8276 1.83146 13.6826 1.64235 13.4979C1.45324 13.3131 1.30297 13.0925 1.20037 12.8488C1.09777 12.6052 1.04492 12.3435 1.04492 12.0791C1.04492 11.8148 1.09777 11.5531 1.20037 11.3094C1.30297 11.0658 1.45324 10.8451 1.64235 10.6604C1.83146 10.4757 2.0556 10.3306 2.30158 10.2337C2.54756 10.1369 2.81042 10.0902 3.07471 10.0964H3.16416C3.49249 10.0888 3.81093 9.9825 4.07806 9.79144C4.34519 9.60038 4.54865 9.33337 4.66198 9.02512C4.7941 8.72593 4.83354 8.39402 4.77521 8.0722C4.71687 7.75039 4.56344 7.45344 4.33471 7.21966L4.27471 7.16075C3.90234 6.78853 3.69309 6.28364 3.69299 5.75714C3.69289 5.23064 3.90194 4.72566 4.27416 4.3533C4.64638 3.98093 5.15127 3.77168 5.67777 3.77158C6.20427 3.77148 6.70925 3.98053 7.08161 4.35275L7.14052 4.41166C7.3743 4.64039 7.67125 4.79383 7.99306 4.85216C8.31488 4.9105 8.64679 4.87106 8.94598 4.73893H9.02561C9.3188 4.61326 9.56886 4.40463 9.74503 4.13872C9.92121 3.8728 10.0158 3.56119 10.0173 3.24221V3.07312C10.0173 2.54712 10.2262 2.04267 10.5981 1.67073C10.9701 1.2988 11.4745 1.08984 12.0005 1.08984C12.5265 1.08984 13.031 1.2988 13.4029 1.67073C13.7748 2.04267 13.9838 2.54712 13.9838 3.07312V3.16366C13.985 3.48298 14.0796 3.79498 14.256 4.06115C14.4324 4.32732 14.6829 4.53601 14.9765 4.66148C15.2756 4.79336 15.6073 4.83267 15.9289 4.77434C16.2504 4.71601 16.5472 4.56272 16.7809 4.33421L16.8398 4.27421C17.0239 4.08959 17.2427 3.94312 17.4835 3.84318C17.7243 3.74324 17.9825 3.6918 18.2433 3.6918C18.504 3.6918 18.7622 3.74324 19.003 3.84318C19.2438 3.94312 19.4626 4.08959 19.6467 4.27421C19.8311 4.45848 19.9773 4.67728 20.0771 4.91808C20.1769 5.15889 20.2282 5.417 20.2282 5.67766C20.2282 5.93832 20.1769 6.19643 20.0771 6.43724C19.9773 6.67805 19.8311 6.89684 19.6467 7.08112L19.5867 7.14003C19.358 7.3738 19.2045 7.67075 19.1462 7.99257C19.0879 8.31438 19.1273 8.6463 19.2594 8.94548V9.02512C19.3852 9.31847 19.594 9.56864 19.8601 9.74484C20.1262 9.92103 20.4381 10.0155 20.7573 10.0168H20.9263C21.4523 10.0168 21.9568 10.2257 22.3287 10.5976C22.7007 10.9696 22.9096 11.474 22.9096 12C22.9096 12.526 22.7007 13.0305 22.3287 13.4024C21.9568 13.7743 21.4523 13.9833 20.9263 13.9833H20.8369C20.5176 13.9845 20.2056 14.0791 19.9394 14.2555C19.6732 14.4319 19.4645 14.6813 19.3391 14.9749Z" stroke="#7D829E" stroke-width="1.63636" stroke-linecap="round" stroke-linejoin="round"/>
</g>
<defs>
<clipPath id="clip0_165_1016">
<rect width="24" height="24" fill="white"/>
</clipPath>
</defs>
</svg>
