<svg width="49" height="49" viewBox="0 0 49 49" fill="none" xmlns="http://www.w3.org/2000/svg">
<g clip-path="url(#clip0_165_2860)">
<path d="M24.7803 48.5C38.0351 48.5 48.7803 37.7548 48.7803 24.5C48.7803 11.2452 38.0351 0.5 24.7803 0.5C11.5254 0.5 0.780273 11.2452 0.780273 24.5C0.780273 37.7548 11.5254 48.5 24.7803 48.5Z" fill="#26A17B"/>
<path fill-rule="evenodd" clip-rule="evenodd" d="M27.6635 26.5745V26.5715C27.4985 26.5835 26.648 26.6345 24.7505 26.6345C23.2355 26.6345 22.169 26.5895 21.794 26.5715V26.576C15.962 26.3195 11.609 25.304 11.609 24.089C11.609 22.8755 15.962 21.86 21.794 21.599V25.565C22.175 25.592 23.267 25.6565 24.776 25.6565C26.5865 25.6565 27.494 25.5815 27.6635 25.5665V21.602C33.4835 21.8615 37.826 22.877 37.826 24.089C37.826 25.304 33.4835 26.3165 27.6635 26.5745ZM27.6635 21.1895V17.6405H35.7845V12.2285H13.673V17.6405H21.794V21.188C15.194 21.491 10.2305 22.799 10.2305 24.365C10.2305 25.931 15.194 27.2375 21.794 27.542V38.915H27.6635V27.539C34.253 27.236 39.2045 25.9295 39.2045 24.365C39.2045 22.8005 34.253 21.494 27.6635 21.1895Z" fill="white"/>
</g>
<defs>
<clipPath id="clip0_165_2860">
<rect width="48" height="48" fill="white" transform="translate(0.780273 0.5)"/>
</clipPath>
</defs>
</svg>
