<svg width="22" height="22" viewBox="0 0 22 22" fill="none" xmlns="http://www.w3.org/2000/svg">
<path d="M11.9717 13.3604L8.97166 10.3604M13.9817 2.86035V1.36035M17.9207 4.42135L18.9817 3.36035M17.9207 12.3604L18.9817 13.4214M9.98166 4.42135L8.92166 3.36035M19.4817 8.36035H20.9817M5.10266 20.2294L14.3397 10.9924C14.7357 10.5964 14.9337 10.3984 15.0077 10.1704C15.0729 9.96952 15.0729 9.75318 15.0077 9.55235C14.9337 9.32435 14.7357 9.12635 14.3397 8.73035L13.6027 7.99335C13.2067 7.59735 13.0087 7.39935 12.7807 7.32535C12.5798 7.2601 12.3635 7.2601 12.1627 7.32535C11.9347 7.39935 11.7367 7.59735 11.3407 7.99335L2.10366 17.2304C1.70766 17.6264 1.50966 17.8244 1.43566 18.0524C1.37041 18.2532 1.37041 18.4695 1.43566 18.6704C1.50966 18.8984 1.70766 19.0964 2.10366 19.4924L2.84066 20.2294C3.23666 20.6254 3.43466 20.8234 3.66266 20.8974C3.86349 20.9626 4.07982 20.9626 4.28066 20.8974C4.50866 20.8234 4.70666 20.6254 5.10266 20.2294Z" stroke="white" stroke-width="2" stroke-linecap="round" stroke-linejoin="round"/>
</svg>
