<svg width="169" height="45" viewBox="0 0 169 45" fill="none" xmlns="http://www.w3.org/2000/svg">
<path d="M29.3378 43.7554V31.0979H25.6172V27.18H37.5537V31.0989H33.833V43.7554H29.3378ZM39.7548 43.7554V27.1484H44.4684C46.3287 27.1484 47.5992 27.2423 48.3441 27.3974C49.0304 27.5464 49.6759 27.8437 50.2351 28.2687C50.8239 28.7349 51.2892 29.295 51.5994 30.0102C51.9136 30.7473 52.0717 31.5414 52.0638 32.3426C52.0638 33.6169 51.7545 34.6749 51.1351 35.483C50.5137 36.2921 49.584 36.8206 48.3747 37.1011L52.8709 43.787H47.7859L44.003 37.2868V43.787L39.7558 43.7554H39.7548ZM43.9724 35.0167H44.8092C45.7705 35.0167 46.4838 34.8616 46.9481 34.5189C47.3828 34.1771 47.6308 33.6792 47.6308 32.964C47.6308 32.1243 47.4135 31.5335 47.0104 31.1917C46.6083 30.8499 45.894 30.6632 44.9021 30.6632H44.003L43.9724 35.0167Z" fill="white"/>
<path d="M52.653 43.7553L58.3575 27.1484H64.0007L69.7051 43.7553H65.2406L64.4038 40.77H57.985L57.1176 43.7553H52.653ZM58.9463 37.5664H63.4425L61.7679 32.0936C61.6814 31.828 61.6091 31.5579 61.5515 31.2846L61.2097 29.8541C61.1168 30.2582 61.024 30.6632 60.9311 31.0366C60.8382 31.41 60.7453 31.7518 60.6525 32.0936L58.9463 37.5664ZM71.2868 43.7553V27.1484H75.6269L81.8906 35.6697C82.015 35.8564 82.2008 36.1982 82.4794 36.7267C82.758 37.2562 83.0682 37.8776 83.3794 38.5937C83.2864 37.9854 83.2241 37.3728 83.1927 36.7583C83.1611 36.2298 83.1305 35.7319 83.1305 35.3279V27.1178H87.4715V43.7247H83.1305L76.8678 35.1412C76.7433 34.9545 76.526 34.6127 76.2474 34.0841C75.9234 33.4736 75.6232 32.8508 75.3474 32.2171C75.4412 32.9017 75.5034 33.524 75.5341 34.0526C75.5657 34.5811 75.5963 35.0789 75.5963 35.483V43.6931H71.2868V43.7553ZM91.7494 38.4061C92.4321 39.1835 93.0831 39.7436 93.7342 40.117C94.3852 40.4904 95.0363 40.6762 95.6874 40.6762C96.2762 40.6762 96.7722 40.5211 97.1752 40.1783C97.5783 39.8681 97.765 39.4324 97.765 38.9355C97.765 38.3754 97.6099 37.9714 97.2681 37.6602C96.9273 37.349 96.1833 37.0379 94.9741 36.7267C93.3617 36.292 92.2147 35.7319 91.533 35.0167C90.8503 34.3015 90.5401 33.3373 90.5401 32.1252C90.5401 30.5387 91.0677 29.2328 92.1218 28.238C93.176 27.2422 94.5404 26.7444 96.2456 26.7444C97.1272 26.742 98.0044 26.8677 98.8498 27.1178C99.656 27.3667 100.432 27.7401 101.175 28.238L99.7489 31.5029C99.2779 31.0894 98.7444 30.7534 98.1681 30.5071C97.6598 30.2839 97.111 30.1676 96.5558 30.1653C96.0292 30.1653 95.5629 30.2898 95.2221 30.5694C94.9128 30.7877 94.6955 31.1601 94.7261 31.5651C94.7261 31.9691 94.8812 32.3119 95.1608 32.5609C95.47 32.8088 96.0282 33.0578 96.8966 33.2751L97.114 33.3373C98.9427 33.8352 100.152 34.3944 100.741 34.9861C101.144 35.3901 101.423 35.888 101.641 36.4471C101.857 37.0072 101.95 37.6602 101.95 38.3438C101.95 40.117 101.361 41.5159 100.214 42.6045C99.0672 43.6624 97.5171 44.2226 95.5945 44.2226C94.4475 44.2226 93.3924 44.0349 92.4321 43.6309C91.4193 43.189 90.4948 42.5675 89.7033 41.7964C89.734 41.7648 91.7494 38.4061 91.7494 38.4061ZM104.462 43.7553V27.1484H114.602V30.8183H108.866V33.7098H114.292V37.2562H108.866V43.786L104.462 43.7553ZM117.051 43.7553V27.1484H127.189V30.8183H121.453V33.7098H126.879V37.2562H121.453V40.0548H127.189V43.7869L117.051 43.7553ZM130.197 43.7553V27.1484H134.909C136.77 27.1484 138.041 27.2422 138.785 27.3973C139.471 27.5461 140.117 27.8435 140.676 28.2686C141.266 28.7349 141.73 29.295 142.04 30.0102C142.35 30.7254 142.536 31.5029 142.536 32.3426C142.536 33.6169 142.227 34.6749 141.607 35.483C140.986 36.292 140.056 36.8205 138.847 37.1011L143.342 43.7869H138.258L134.475 37.2868V43.786L130.197 43.7553ZM134.413 35.0167H135.25C136.211 35.0167 136.925 34.8616 137.39 34.5188C137.824 34.177 138.072 33.6791 138.072 32.9639C138.072 32.1243 137.855 31.5335 137.452 31.1917C137.049 30.8499 136.336 30.6632 135.344 30.6632H134.445V35.0167H134.413ZM77.3322 0.186702L80.3405 11.5688C80.4956 12.0973 80.6191 12.6259 80.7426 13.186C80.8671 13.7451 80.9915 14.3674 81.116 15.1143C81.2701 14.2746 81.4252 13.5594 81.5181 12.9983C81.6426 12.4391 81.7355 11.9729 81.859 11.5688L84.6815 0.186702H91.2544L84.4948 24.1631H78.4485L75.5034 13.9318C75.379 13.5584 75.2239 12.8748 74.9768 11.8178C74.8524 11.3505 74.7901 10.9781 74.7279 10.7291L74.5115 11.6933L73.9533 13.9318L71.0389 24.1631H64.9303L58.2024 0.186702H64.7762L67.5049 11.6617L67.8774 13.4349C68.0018 14.0256 68.1253 14.6164 68.2182 15.2378C68.4642 14.0383 68.7433 12.8458 69.055 11.6617L72.0624 0.186702H77.3322ZM93.672 24.1631V0.186702H100.245V24.1631H93.672ZM105.485 24.1631V0.186702H112.306C114.972 0.186702 116.833 0.31117 117.888 0.560106C118.941 0.809043 119.841 1.21309 120.615 1.80383C121.483 2.45803 122.166 3.32549 122.599 4.32191C123.065 5.34926 123.282 6.46851 123.282 7.6816C123.282 9.54766 122.817 11.0403 121.918 12.2218C121.019 13.3727 119.685 14.1501 117.949 14.5226L124.46 24.1947H117.111L111.624 14.8021V24.1947H105.485V24.1631ZM111.593 11.5056H112.802C114.198 11.5056 115.22 11.2567 115.871 10.7914C116.522 10.3241 116.833 9.5467 116.833 8.52128C116.833 7.30819 116.522 6.46851 115.934 5.97064C115.313 5.47277 114.321 5.22383 112.895 5.22383H111.592V11.5066L111.593 11.5056ZM126.94 24.1631V0.186702H141.575V5.44309H133.296V9.60989H141.11V14.7409H133.296V18.7832H141.575V24.164H126.94V24.1631ZM55.6297 0H25.833V4.75851H55.6288L55.6297 0ZM55.6297 9.23649H25.833V13.995H55.6288L55.6297 9.23649ZM55.6297 19.2801H25.833V24.0386H55.6288L55.6297 19.2801Z" fill="white"/>
</svg>
